<svg width="18" height="17" viewBox="0 0 18 17" fill="none" xmlns="http://www.w3.org/2000/svg">
<path d="M8.30679 9.09229H2.76833C1.62118 9.09229 0.691406 10.0221 0.691406 11.1692V14.6307C0.691406 15.7779 1.62118 16.7077 2.76833 16.7077H8.30679V9.09229ZM3.11448 11.8615C3.11448 11.4794 3.42464 11.1692 3.80679 11.1692H5.19141C5.57356 11.1692 5.88371 11.4794 5.88371 11.8615C5.88371 12.2437 5.57356 12.5538 5.19141 12.5538H3.80679C3.42464 12.5538 3.11448 12.2437 3.11448 11.8615ZM15.2299 9.09229H9.69141V16.7077H15.2299C16.377 16.7077 17.3068 15.7779 17.3068 14.6307V11.1692C17.3068 10.0221 16.377 9.09229 15.2299 9.09229ZM14.1914 12.5538H12.8068C12.4246 12.5538 12.1145 12.2437 12.1145 11.8615C12.1145 11.4794 12.4246 11.1692 12.8068 11.1692H14.1914C14.5736 11.1692 14.8837 11.4794 14.8837 11.8615C14.8837 12.2437 14.5736 12.5538 14.1914 12.5538ZM11.076 0.0922852H6.92218C5.77502 0.0922852 4.84525 1.02205 4.84525 2.16921V7.70767H13.1529V2.16921C13.1529 1.02205 12.2232 0.0922852 11.076 0.0922852ZM9.69141 3.55382H8.30679C7.92464 3.55382 7.61448 3.24367 7.61448 2.86152C7.61448 2.47936 7.92464 2.16921 8.30679 2.16921H9.69141C10.0736 2.16921 10.3837 2.47936 10.3837 2.86152C10.3837 3.24367 10.0736 3.55382 9.69141 3.55382Z" fill="#797979"/>
</svg>
