<svg width="16" height="16" viewBox="0 0 16 16" fill="none" xmlns="http://www.w3.org/2000/svg">
<path d="M14.93 11.08C14.7935 10.4445 14.4695 9.86451 14 9.415C13.3997 8.82569 12.5912 8.4969 11.75 8.5C10.8885 8.50132 10.0626 8.84416 9.45336 9.45336C8.84416 10.0626 8.50132 10.8885 8.5 11.75V12C8.52468 12.3442 8.60576 12.6821 8.74 13C9.05146 13.7469 9.63036 14.3507 10.3634 14.6933C11.0965 15.036 11.9311 15.0928 12.7039 14.8527C13.4766 14.6127 14.1321 14.0929 14.5419 13.3952C14.9518 12.6974 15.0866 11.8719 14.92 11.08H14.93ZM12.145 12.855L11.75 12.46L11.355 12.855C11.3085 12.9019 11.2532 12.9391 11.1923 12.9644C11.1314 12.9898 11.066 13.0029 11 13.0029C10.934 13.0029 10.8686 12.9898 10.8077 12.9644C10.7468 12.9391 10.6915 12.9019 10.645 12.855C10.5981 12.8085 10.5609 12.7532 10.5356 12.6923C10.5102 12.6314 10.4971 12.566 10.4971 12.5C10.4971 12.434 10.5102 12.3686 10.5356 12.3077C10.5609 12.2468 10.5981 12.1915 10.645 12.145L10.79 12L11.04 11.75L10.645 11.355C10.5508 11.2608 10.498 11.1331 10.498 11C10.498 10.8668 10.5508 10.7392 10.645 10.645C10.7392 10.5508 10.8668 10.498 11 10.498C11.1332 10.498 11.2608 10.5508 11.355 10.645L11.75 11.04L12.145 10.645C12.2392 10.5508 12.3668 10.498 12.5 10.498C12.6332 10.498 12.7608 10.5508 12.855 10.645C12.9492 10.7392 13.002 10.8668 13.002 11C13.002 11.1331 12.9492 11.2608 12.855 11.355L12.46 11.75L12.695 11.985L12.855 12.145C12.9019 12.1915 12.9391 12.2468 12.9644 12.3077C12.9898 12.3686 13.0029 12.434 13.0029 12.5C13.0029 12.566 12.9898 12.6314 12.9644 12.6923C12.9391 12.7532 12.9019 12.8085 12.855 12.855C12.8085 12.9019 12.7532 12.9391 12.6923 12.9644C12.6314 12.9898 12.566 13.0029 12.5 13.0029C12.434 13.0029 12.3686 12.9898 12.3077 12.9644C12.2468 12.9391 12.1915 12.9019 12.145 12.855Z" fill="#F7A500"/>
<path d="M15 5.5V6H1V5.5C1 4.83696 1.26339 4.20107 1.73223 3.73223C2.20107 3.26339 2.83696 3 3.5 3H12.5C13.163 3 13.7989 3.26339 14.2678 3.73223C14.7366 4.20107 15 4.83696 15 5.5Z" fill="#F7A500"/>
<path d="M15 7V9C14.7138 8.66132 14.3764 8.36947 14 8.135C13.325 7.71516 12.5449 7.495 11.75 7.5C10.6232 7.50132 9.543 7.94951 8.74626 8.74626C7.94951 9.543 7.50132 10.6232 7.5 11.75V12C7.52132 12.3391 7.58172 12.6747 7.68 13H3.5C2.83696 13 2.20107 12.7366 1.73223 12.2678C1.26339 11.7989 1 11.163 1 10.5V7H15Z" fill="#F7A500"/>
</svg>
