<svg width="18" height="18" viewBox="0 0 18 18" fill="none" xmlns="http://www.w3.org/2000/svg">
<g clip-path="url(#clip0_4686_73354)">
<path d="M18 12C18 13.9733 15.4568 16.6523 14.1945 17.616C13.785 17.928 13.215 17.928 12.8063 17.616C11.5433 16.6523 9.00075 13.9733 9.00075 12C9.00075 10.7572 10.008 9.75 11.2508 9.75C12.4935 9.75 13.5007 10.7572 13.5007 12C13.5007 10.7572 14.508 9.75 15.7507 9.75C16.9935 9.75 18 10.7572 18 12ZM10.9635 18H3.75C1.68225 18 0 16.3177 0 14.25V3.75C0 1.68225 1.68225 0 3.75 0H10.5C12.5677 0 14.25 1.68225 14.25 3.75V8.57625C13.9845 8.69325 13.7295 8.82975 13.5 9.0015C13.0605 8.67075 12.543 8.442 11.9835 8.33025C11.9865 8.3025 12 8.2785 12 8.25C12 7.83525 11.664 7.5 11.25 7.5H6.75C6.336 7.5 6 7.83525 6 8.25C6 8.66475 6.336 9 6.75 9H9.02325C8.1045 9.684 7.5 10.7692 7.5 12C7.5 14.238 9.5475 16.6597 10.9635 18ZM6 4.5C6 4.91475 6.336 5.25 6.75 5.25H11.25C11.664 5.25 12 4.91475 12 4.5C12 4.08525 11.664 3.75 11.25 3.75H6.75C6.336 3.75 6 4.08525 6 4.5ZM4.5 12C4.5 11.379 3.996 10.875 3.375 10.875C2.754 10.875 2.25 11.379 2.25 12C2.25 12.621 2.754 13.125 3.375 13.125C3.996 13.125 4.5 12.621 4.5 12ZM4.5 8.25C4.5 7.629 3.996 7.125 3.375 7.125C2.754 7.125 2.25 7.629 2.25 8.25C2.25 8.871 2.754 9.375 3.375 9.375C3.996 9.375 4.5 8.871 4.5 8.25ZM4.5 4.5C4.5 3.879 3.996 3.375 3.375 3.375C2.754 3.375 2.25 3.879 2.25 4.5C2.25 5.121 2.754 5.625 3.375 5.625C3.996 5.625 4.5 5.121 4.5 4.5Z" fill="#767D93"/>
</g>
<defs>
<clipPath id="clip0_4686_73354">
<rect width="18" height="18" fill="white"/>
</clipPath>
</defs>
</svg>
