<svg width="18" height="17" viewBox="0 0 18 17" fill="none" xmlns="http://www.w3.org/2000/svg">
<g id="ep:arrow-down-bold">
<path id="Vector" d="M5.95463 15.2622C5.74372 15.0629 5.62524 14.7927 5.62524 14.511C5.62524 14.2292 5.74372 13.959 5.95463 13.7598L11.5234 8.50041L5.95463 3.24103C5.7497 3.04064 5.63631 2.77225 5.63887 2.49367C5.64143 2.21508 5.75975 1.94859 5.96833 1.7516C6.17692 1.5546 6.45908 1.44286 6.75405 1.44044C7.04902 1.43802 7.3332 1.54511 7.54538 1.73866L13.9095 7.74922C14.1204 7.94847 14.2389 8.21867 14.2389 8.50041C14.2389 8.78214 14.1204 9.05235 13.9095 9.25159L7.54538 15.2622C7.33441 15.4613 7.04831 15.5732 6.75 15.5732C6.45169 15.5732 6.1656 15.4613 5.95463 15.2622Z" fill="#0059C2"/>
</g>
</svg>
