<svg width="22" height="22" viewBox="0 0 22 22" fill="none" xmlns="http://www.w3.org/2000/svg">
<g id="ep:arrow-down-bold">
<path id="Vector" d="M7.27807 19.7507C7.0203 19.4929 6.87549 19.1432 6.87549 18.7786C6.87549 18.414 7.0203 18.0643 7.27807 17.8065L14.0843 11.0002L7.27807 4.19399C7.0276 3.93466 6.88901 3.58733 6.89214 3.22681C6.89528 2.86629 7.03988 2.52142 7.29482 2.26649C7.54976 2.01155 7.89462 1.86695 8.25514 1.86381C8.61566 1.86068 8.96299 1.99927 9.22232 2.24974L17.0007 10.0281C17.2585 10.286 17.4033 10.6356 17.4033 11.0002C17.4033 11.3648 17.2585 11.7145 17.0007 11.9724L9.22232 19.7507C8.96447 20.0085 8.6148 20.1533 8.25019 20.1533C7.88559 20.1533 7.53592 20.0085 7.27807 19.7507Z" fill="white"/>
</g>
</svg>
