<svg width="18" height="18" viewBox="0 0 18 18" fill="none" xmlns="http://www.w3.org/2000/svg">
<g id="ep:arrow-down-bold">
<path id="Vector" d="M5.95463 15.7192C5.74372 15.5162 5.62524 15.2409 5.62524 14.9538C5.62524 14.6668 5.74372 14.3915 5.95463 14.1885L11.5234 8.82985L5.95463 3.47124C5.7497 3.26707 5.63631 2.99361 5.63887 2.70977C5.64143 2.42593 5.75975 2.15442 5.96833 1.9537C6.17692 1.75299 6.45908 1.63914 6.75405 1.63667C7.04902 1.63421 7.3332 1.74332 7.54538 1.94052L13.9095 8.06449C14.1204 8.26749 14.2389 8.54279 14.2389 8.82985C14.2389 9.1169 14.1204 9.3922 13.9095 9.59521L7.54538 15.7192C7.33441 15.9221 7.04831 16.0361 6.75 16.0361C6.45169 16.0361 6.1656 15.9221 5.95463 15.7192Z" fill="white"/>
</g>
</svg>
