<svg width="37" height="26" viewBox="0 0 37 26" fill="none" xmlns="http://www.w3.org/2000/svg">
<g id="&#240;&#159;&#166;&#134; icon &#34;truck&#34;">
<path id="Vector" d="M10.3541 23.7203C12.1996 23.7203 13.6957 22.2243 13.6957 20.3787C13.6957 18.5331 12.1996 17.0371 10.3541 17.0371C8.50854 17.0371 7.01245 18.5331 7.01245 20.3787C7.01245 22.2243 8.50854 23.7203 10.3541 23.7203Z" stroke="#7A7A7A" stroke-width="3" stroke-miterlimit="1.5" stroke-linecap="round" stroke-linejoin="round"/>
<path id="Vector_2" d="M27.0621 23.7203C28.9076 23.7203 30.4037 22.2243 30.4037 20.3787C30.4037 18.5331 28.9076 17.0371 27.0621 17.0371C25.2165 17.0371 23.7205 18.5331 23.7205 20.3787C23.7205 22.2243 25.2165 23.7203 27.0621 23.7203Z" stroke="#7A7A7A" stroke-width="3" stroke-miterlimit="1.5" stroke-linecap="round" stroke-linejoin="round"/>
<path id="Vector_3" d="M22.0496 20.3788V3.00248C22.0496 2.44883 21.6008 2 21.0471 2H3.00248C2.44883 2 2 2.44883 2 3.00248V19.3763C2 19.93 2.44883 20.3788 3.00248 20.3788H6.42762" stroke="#7A7A7A" stroke-width="3" stroke-linecap="round"/>
<path id="Vector_4" d="M22.0497 20.3789H13.7793" stroke="#7A7A7A" stroke-width="3" stroke-linecap="round"/>
<path id="Vector_5" d="M22.0496 7.01172H31.4229C31.8191 7.01172 32.1781 7.24503 32.339 7.60706L35.3296 14.3358C35.3866 14.4642 35.416 14.6028 35.416 14.743V19.3756C35.416 19.9293 34.9672 20.3781 34.4135 20.3781H31.239" stroke="#7A7A7A" stroke-width="3" stroke-linecap="round"/>
<path id="Vector_6" d="M22.0496 20.3789H23.7204" stroke="#7A7A7A" stroke-width="3" stroke-linecap="round"/>
</g>
</svg>
