<svg width="73" height="73" viewBox="0 0 73 73" fill="none" xmlns="http://www.w3.org/2000/svg">
<g id="icons8-calculator 1">
<path id="Vector" d="M16.372 6.84375C13.028 6.84375 10.2656 9.52352 10.2656 12.832V61.3086C10.2656 64.6171 13.028 67.2969 16.372 67.2969H48.6436C51.9877 67.2969 54.75 64.6171 54.75 61.3086V12.832C54.75 9.52352 51.9877 6.84375 48.6436 6.84375H16.372ZM16.372 9.125H48.6436C50.7838 9.125 52.4688 10.7865 52.4688 12.832V61.3086C52.4688 63.3542 50.7838 65.0156 48.6436 65.0156H16.372C14.2319 65.0156 12.5469 63.3542 12.5469 61.3086V12.832C12.5469 10.7865 14.2319 9.125 16.372 9.125ZM18.5129 11.4062C16.5552 11.4062 14.8281 12.881 14.8281 14.8281V21.6719C14.8281 23.6197 16.5552 25.0938 18.5129 25.0938H46.5027C48.4597 25.0938 50.1875 23.6197 50.1875 21.6719V14.8281C50.1875 12.8803 48.4604 11.4062 46.5027 11.4062H18.5129ZM18.5129 13.6875H46.5027C47.3556 13.6875 47.9062 14.2552 47.9062 14.8281V21.6719C47.9062 22.2448 47.354 22.8125 46.5027 22.8125H18.5129C17.66 22.8125 17.1094 22.2448 17.1094 21.6719V14.8281C17.1094 14.2545 17.66 13.6875 18.5129 13.6875ZM59.3125 13.6875C58.6829 13.6875 58.1719 14.1974 58.1719 14.8281C58.1719 15.4589 58.6829 15.9688 59.3125 15.9688H61.5938C62.2234 15.9688 62.7344 15.4589 62.7344 14.8281C62.7344 14.1974 62.2234 13.6875 61.5938 13.6875H59.3125ZM59.3125 19.3906C58.6829 19.3906 58.1719 19.9005 58.1719 20.5312C58.1719 21.162 58.6829 21.6719 59.3125 21.6719H61.5938C62.2234 21.6719 62.7344 21.162 62.7344 20.5312C62.7344 19.9005 62.2234 19.3906 61.5938 19.3906H59.3125ZM59.3125 25.0938C58.6829 25.0938 58.1719 25.6036 58.1719 26.2344C58.1719 26.8651 58.6829 27.375 59.3125 27.375H61.5938C62.2234 27.375 62.7344 26.8651 62.7344 26.2344C62.7344 25.6036 62.2234 25.0938 61.5938 25.0938H59.3125ZM19.9609 27.375C18.3451 27.375 16.988 28.022 16.1136 29.0057C15.2391 29.9894 14.8281 31.2563 14.8281 32.5078C14.8281 33.7593 15.2391 35.0262 16.1136 36.0099C16.988 36.9936 18.3451 37.6406 19.9609 37.6406C21.5768 37.6406 22.9339 36.9936 23.8083 36.0099C24.6827 35.0262 25.0938 33.7593 25.0938 32.5078C25.0938 31.2563 24.6827 29.9894 23.8083 29.0057C22.9339 28.022 21.5768 27.375 19.9609 27.375ZM32.5078 27.375C30.8919 27.375 29.5348 28.022 28.6604 29.0057C27.786 29.9894 27.375 31.2563 27.375 32.5078C27.375 33.7593 27.786 35.0262 28.6604 36.0099C29.5348 36.9936 30.8919 37.6406 32.5078 37.6406C34.1237 37.6406 35.4808 36.9936 36.3552 36.0099C37.2296 35.0262 37.6406 33.7593 37.6406 32.5078C37.6406 31.2563 37.2296 29.9894 36.3552 29.0057C35.4808 28.022 34.1237 27.375 32.5078 27.375ZM45.0547 27.375C43.4388 27.375 42.0817 28.022 41.2073 29.0057C40.3329 29.9894 39.9219 31.2563 39.9219 32.5078C39.9219 33.7593 40.3329 35.0262 41.2073 36.0099C42.0817 36.9936 43.4388 37.6406 45.0547 37.6406C46.6706 37.6406 48.0277 36.9936 48.9021 36.0099C49.7765 35.0262 50.1875 33.7593 50.1875 32.5078C50.1875 31.2563 49.7765 29.9894 48.9021 29.0057C48.0277 28.022 46.6706 27.375 45.0547 27.375ZM19.9609 29.6562C21.0065 29.6562 21.6455 30.0073 22.1018 30.5206C22.5582 31.034 22.8125 31.7632 22.8125 32.5078C22.8125 33.2524 22.5582 33.9816 22.1018 34.495C21.6455 35.0084 21.0065 35.3594 19.9609 35.3594C18.9154 35.3594 18.2764 35.0084 17.82 34.495C17.3637 33.9816 17.1094 33.2524 17.1094 32.5078C17.1094 31.7632 17.3637 31.034 17.82 30.5206C18.2764 30.0073 18.9154 29.6562 19.9609 29.6562ZM32.5078 29.6562C33.5534 29.6562 34.1924 30.0073 34.6487 30.5206C35.105 31.034 35.3594 31.7632 35.3594 32.5078C35.3594 33.2524 35.105 33.9816 34.6487 34.495C34.1924 35.0084 33.5534 35.3594 32.5078 35.3594C31.4622 35.3594 30.8232 35.0084 30.3669 34.495C29.9106 33.9816 29.6562 33.2524 29.6562 32.5078C29.6562 31.7632 29.9106 31.034 30.3669 30.5206C30.8232 30.0073 31.4622 29.6562 32.5078 29.6562ZM45.0547 29.6562C46.1003 29.6562 46.7393 30.0073 47.1956 30.5206C47.6519 31.034 47.9062 31.7632 47.9062 32.5078C47.9062 33.2524 47.6519 33.9816 47.1956 34.495C46.7393 35.0084 46.1003 35.3594 45.0547 35.3594C44.0091 35.3594 43.3701 35.0084 42.9138 34.495C42.4575 33.9816 42.2031 33.2524 42.2031 32.5078C42.2031 31.7632 42.4575 31.034 42.9138 30.5206C43.3701 30.0073 44.0091 29.6562 45.0547 29.6562ZM59.3125 30.7969C58.6829 30.7969 58.1719 31.3067 58.1719 31.9375C58.1719 32.5683 58.6829 33.0781 59.3125 33.0781H61.5938C62.2234 33.0781 62.7344 32.5683 62.7344 31.9375C62.7344 31.3067 62.2234 30.7969 61.5938 30.7969H59.3125ZM59.3125 36.5C58.6829 36.5 58.1719 37.0099 58.1719 37.6406C58.1719 38.2714 58.6829 38.7812 59.3125 38.7812H61.5938C62.2234 38.7812 62.7344 38.2714 62.7344 37.6406C62.7344 37.0099 62.2234 36.5 61.5938 36.5H59.3125ZM19.9609 39.9219C18.3451 39.9219 16.988 40.5689 16.1136 41.5526C15.2391 42.5363 14.8281 43.8032 14.8281 45.0547C14.8281 46.3062 15.2391 47.5731 16.1136 48.5568C16.988 49.5405 18.3451 50.1875 19.9609 50.1875C21.5768 50.1875 22.9339 49.5405 23.8083 48.5568C24.6827 47.5731 25.0938 46.3062 25.0938 45.0547C25.0938 43.8032 24.6827 42.5363 23.8083 41.5526C22.9339 40.5689 21.5768 39.9219 19.9609 39.9219ZM32.5078 39.9219C30.8919 39.9219 29.5348 40.5689 28.6604 41.5526C27.786 42.5363 27.375 43.8032 27.375 45.0547C27.375 46.3062 27.786 47.5731 28.6604 48.5568C29.5348 49.5405 30.8919 50.1875 32.5078 50.1875C34.1237 50.1875 35.4808 49.5405 36.3552 48.5568C37.2296 47.5731 37.6406 46.3062 37.6406 45.0547C37.6406 43.8032 37.2296 42.5363 36.3552 41.5526C35.4808 40.5689 34.1237 39.9219 32.5078 39.9219ZM45.0547 39.9219C43.4388 39.9219 42.0817 40.5689 41.2073 41.5526C40.3329 42.5363 39.9219 43.8032 39.9219 45.0547C39.9219 46.3062 40.3329 47.5731 41.2073 48.5568C42.0817 49.5405 43.4388 50.1875 45.0547 50.1875C46.6706 50.1875 48.0277 49.5405 48.9021 48.5568C49.7765 47.5731 50.1875 46.3062 50.1875 45.0547C50.1875 43.8032 49.7765 42.5363 48.9021 41.5526C48.0277 40.5689 46.6706 39.9219 45.0547 39.9219ZM19.9609 42.2031C21.0065 42.2031 21.6455 42.5541 22.1018 43.0675C22.5582 43.5809 22.8125 44.3101 22.8125 45.0547C22.8125 45.7993 22.5582 46.5285 22.1018 47.0419C21.6455 47.5552 21.0065 47.9062 19.9609 47.9062C18.9154 47.9062 18.2764 47.5552 17.82 47.0419C17.3637 46.5285 17.1094 45.7993 17.1094 45.0547C17.1094 44.3101 17.3637 43.5809 17.82 43.0675C18.2764 42.5541 18.9154 42.2031 19.9609 42.2031ZM32.5078 42.2031C33.5534 42.2031 34.1924 42.5541 34.6487 43.0675C35.105 43.5809 35.3594 44.3101 35.3594 45.0547C35.3594 45.7993 35.105 46.5285 34.6487 47.0419C34.1924 47.5552 33.5534 47.9062 32.5078 47.9062C31.4622 47.9062 30.8232 47.5552 30.3669 47.0419C29.9106 46.5285 29.6562 45.7993 29.6562 45.0547C29.6562 44.3101 29.9106 43.5809 30.3669 43.0675C30.8232 42.5541 31.4622 42.2031 32.5078 42.2031ZM45.0547 42.2031C46.1003 42.2031 46.7393 42.5541 47.1956 43.0675C47.6519 43.5809 47.9062 44.3101 47.9062 45.0547C47.9062 45.7993 47.6519 46.5285 47.1956 47.0419C46.7393 47.5552 46.1003 47.9062 45.0547 47.9062C44.0091 47.9062 43.3701 47.5552 42.9138 47.0419C42.4575 46.5285 42.2031 45.7993 42.2031 45.0547C42.2031 44.3101 42.4575 43.5809 42.9138 43.0675C43.3701 42.5541 44.0091 42.2031 45.0547 42.2031ZM59.3125 42.2031C58.6829 42.2031 58.1719 42.713 58.1719 43.3438C58.1719 43.9745 58.6829 44.4844 59.3125 44.4844H61.5938C62.2234 44.4844 62.7344 43.9745 62.7344 43.3438C62.7344 42.713 62.2234 42.2031 61.5938 42.2031H59.3125ZM59.3125 47.9062C58.6829 47.9062 58.1719 48.4161 58.1719 49.0469C58.1719 49.6776 58.6829 50.1875 59.3125 50.1875H61.5938C62.2234 50.1875 62.7344 49.6776 62.7344 49.0469C62.7344 48.4161 62.2234 47.9062 61.5938 47.9062H59.3125ZM19.9609 52.4688C17.1397 52.4688 14.8281 54.7803 14.8281 57.6016C14.8281 60.4228 17.1397 62.7344 19.9609 62.7344H32.5078C35.3291 62.7344 37.6406 60.4228 37.6406 57.6016C37.6406 54.7803 35.3291 52.4688 32.5078 52.4688H19.9609ZM45.0547 52.4688C43.4388 52.4688 42.0817 53.1158 41.2073 54.0995C40.3329 55.0832 39.9219 56.35 39.9219 57.6016C39.9219 58.8531 40.3329 60.1199 41.2073 61.1036C42.0817 62.0873 43.4388 62.7344 45.0547 62.7344C46.6706 62.7344 48.0277 62.0873 48.9021 61.1036C49.7765 60.1199 50.1875 58.8531 50.1875 57.6016C50.1875 56.35 49.7765 55.0832 48.9021 54.0995C48.0277 53.1158 46.6706 52.4688 45.0547 52.4688ZM59.3125 53.6094C58.6829 53.6094 58.1719 54.1192 58.1719 54.75C58.1719 55.3808 58.6829 55.8906 59.3125 55.8906H61.5938C62.2234 55.8906 62.7344 55.3808 62.7344 54.75C62.7344 54.1192 62.2234 53.6094 61.5938 53.6094H59.3125ZM19.9609 54.75H32.5078C34.0962 54.75 35.3594 56.0132 35.3594 57.6016C35.3594 59.19 34.0962 60.4531 32.5078 60.4531H19.9609C18.3725 60.4531 17.1094 59.19 17.1094 57.6016C17.1094 56.0132 18.3725 54.75 19.9609 54.75ZM45.0547 54.75C46.1003 54.75 46.7393 55.101 47.1956 55.6144C47.6519 56.1277 47.9062 56.857 47.9062 57.6016C47.9062 58.3461 47.6519 59.0754 47.1956 59.5887C46.7393 60.1021 46.1003 60.4531 45.0547 60.4531C44.0091 60.4531 43.3701 60.1021 42.9138 59.5887C42.4575 59.0754 42.2031 58.3461 42.2031 57.6016C42.2031 56.857 42.4575 56.1277 42.9138 55.6144C43.3701 55.101 44.0091 54.75 45.0547 54.75ZM59.3125 59.3125C58.6829 59.3125 58.1719 59.8224 58.1719 60.4531C58.1719 61.0839 58.6829 61.5938 59.3125 61.5938H61.5938C62.2234 61.5938 62.7344 61.0839 62.7344 60.4531C62.7344 59.8224 62.2234 59.3125 61.5938 59.3125H59.3125Z" fill="black"/>
</g>
</svg>
