<svg width="44" height="44" viewBox="0 0 44 44" fill="none" xmlns="http://www.w3.org/2000/svg">
<g id="fa6-solid:car">
<path id="Vector" d="M11.6187 10.0891L9.37578 16.5H34.6242L32.3812 10.0891C31.9945 8.98906 30.9547 8.25 29.7859 8.25H14.2141C13.0453 8.25 12.0055 8.98906 11.6187 10.0891ZM3.40312 16.9125L6.42813 8.27578C7.58828 4.96719 10.7078 2.75 14.2141 2.75H29.7859C33.2922 2.75 36.4117 4.96719 37.5719 8.27578L40.5969 16.9125C42.5906 17.7375 44 19.7055 44 22V38.5C44 40.0211 42.7711 41.25 41.25 41.25H38.5C36.9789 41.25 35.75 40.0211 35.75 38.5V34.375H8.25V38.5C8.25 40.0211 7.02109 41.25 5.5 41.25H2.75C1.22891 41.25 0 40.0211 0 38.5V22C0 19.7055 1.40937 17.7375 3.40312 16.9125ZM11 24.75C11 24.0207 10.7103 23.3212 10.1945 22.8055C9.67882 22.2897 8.97935 22 8.25 22C7.52065 22 6.82118 22.2897 6.30546 22.8055C5.78973 23.3212 5.5 24.0207 5.5 24.75C5.5 25.4793 5.78973 26.1788 6.30546 26.6945C6.82118 27.2103 7.52065 27.5 8.25 27.5C8.97935 27.5 9.67882 27.2103 10.1945 26.6945C10.7103 26.1788 11 25.4793 11 24.75ZM35.75 27.5C36.4793 27.5 37.1788 27.2103 37.6945 26.6945C38.2103 26.1788 38.5 25.4793 38.5 24.75C38.5 24.0207 38.2103 23.3212 37.6945 22.8055C37.1788 22.2897 36.4793 22 35.75 22C35.0207 22 34.3212 22.2897 33.8055 22.8055C33.2897 23.3212 33 24.0207 33 24.75C33 25.4793 33.2897 26.1788 33.8055 26.6945C34.3212 27.2103 35.0207 27.5 35.75 27.5Z" fill="#7A7A7A"/>
</g>
</svg>
