<svg width="52" height="52" viewBox="0 0 52 52" fill="none" xmlns="http://www.w3.org/2000/svg">
<g id="fluent:vehicle-car-profile-ltr-16-regular">
<path id="Vector" d="M38.2687 21.125L37.8332 20.969L34.1445 14.053C33.4517 12.7533 32.4186 11.6664 31.1558 10.9084C29.8929 10.1505 28.4478 9.75008 26.975 9.75H17.6865C15.9808 9.74993 14.3184 10.2867 12.9347 11.2841C11.5511 12.2816 10.5165 13.6892 9.9775 15.3075L8.21925 20.5822C6.7462 21.2031 5.48903 22.2447 4.60511 23.5767C3.7212 24.9086 3.24983 26.4717 3.25 28.0702V31.6875C3.25 33.995 4.62475 35.9775 6.5975 36.8712C6.85297 38.335 7.60222 39.667 8.72044 40.6454C9.83866 41.6239 11.2584 42.1897 12.743 42.2486C14.2277 42.3075 15.6878 41.8559 16.88 40.9691C18.0722 40.0824 18.9246 38.8139 19.2952 37.375H32.7048C33.0754 38.8139 33.9278 40.0824 35.12 40.9691C36.3122 41.8559 37.7723 42.3075 39.257 42.2486C40.7416 42.1897 42.1613 41.6239 43.2796 40.6454C44.3978 39.667 45.147 38.335 45.4025 36.8712C46.4001 36.4209 47.2466 35.6923 47.8404 34.7728C48.4341 33.8533 48.75 32.782 48.75 31.6875V30.5857C48.7498 28.9085 48.2304 27.2724 47.2633 25.9021C46.2962 24.5317 44.9287 23.4942 43.3485 22.932L38.441 21.1867V21.125H38.2687ZM17.6865 13H21.125V21.125H11.4627L13.0585 16.3345C13.382 15.3631 14.0032 14.5182 14.8339 13.9197C15.6646 13.3212 16.6626 12.9994 17.6865 13ZM24.375 13H26.975C27.8588 12.9997 28.726 13.2396 29.484 13.6942C30.2419 14.1487 30.862 14.8007 31.278 15.5805L34.2355 21.125H24.375V13ZM37.7097 24.375L42.2598 25.9935C43.2078 26.3309 44.0281 26.9535 44.6083 27.7757C45.1884 28.5979 45.4999 29.5795 45.5 30.5857V31.6875C45.5 32.2562 45.305 32.7795 44.98 33.1955C44.4476 31.946 43.5372 30.8946 42.3767 30.189C41.2161 29.4835 39.8637 29.1592 38.5093 29.2618C37.155 29.3643 35.8668 29.8885 34.8257 30.7608C33.7846 31.6331 33.0429 32.8095 32.7048 34.125H19.2952C18.9571 32.8095 18.2154 31.6331 17.1743 30.7608C16.1332 29.8885 14.845 29.3643 13.4907 29.2618C12.1364 29.1592 10.7839 29.4835 9.62334 30.189C8.46276 30.8946 7.55236 31.946 7.02 33.1955C6.68176 32.7657 6.49854 32.2344 6.5 31.6875V28.0702C6.5 26.6077 7.15 25.2752 8.19 24.375H37.7097ZM9.75 35.75C9.75 34.888 10.0924 34.0614 10.7019 33.4519C11.3114 32.8424 12.138 32.5 13 32.5C13.862 32.5 14.6886 32.8424 15.2981 33.4519C15.9076 34.0614 16.25 34.888 16.25 35.75C16.25 36.612 15.9076 37.4386 15.2981 38.0481C14.6886 38.6576 13.862 39 13 39C12.138 39 11.3114 38.6576 10.7019 38.0481C10.0924 37.4386 9.75 36.612 9.75 35.75ZM39 32.5C39.862 32.5 40.6886 32.8424 41.2981 33.4519C41.9076 34.0614 42.25 34.888 42.25 35.75C42.25 36.612 41.9076 37.4386 41.2981 38.0481C40.6886 38.6576 39.862 39 39 39C38.138 39 37.3114 38.6576 36.7019 38.0481C36.0924 37.4386 35.75 36.612 35.75 35.75C35.75 34.888 36.0924 34.0614 36.7019 33.4519C37.3114 32.8424 38.138 32.5 39 32.5Z" fill="#7A7A7A"/>
</g>
</svg>
