<svg width="29" height="29" viewBox="0 0 29 29" fill="none" xmlns="http://www.w3.org/2000/svg">
<g id="prime:home">
<path id="Vector" d="M24.1666 14.1978C23.9704 14.1986 23.7793 14.1349 23.6228 14.0165L14.4999 7.17734L5.37701 14.0165C5.18472 14.1607 4.94303 14.2226 4.70509 14.1886C4.46716 14.1547 4.25247 14.0275 4.10826 13.8353C3.96404 13.643 3.90212 13.4013 3.93611 13.1633C3.9701 12.9254 4.09722 12.7107 4.28951 12.5665L13.9562 5.3165C14.113 5.19885 14.3038 5.13525 14.4999 5.13525C14.696 5.13525 14.8868 5.19885 15.0437 5.3165L24.7103 12.5665C24.8858 12.709 25.0017 12.912 25.0352 13.1355C25.0688 13.3591 25.0175 13.5871 24.8916 13.7748C24.8146 13.8993 24.7082 14.0029 24.5818 14.0766C24.4554 14.1504 24.3128 14.192 24.1666 14.1978Z" fill="black"/>
<path id="Vector_2" d="M21.75 23.8644H7.25C7.01062 23.8613 6.78193 23.7648 6.61264 23.5955C6.44336 23.4262 6.34688 23.1976 6.34375 22.9582V11.479C6.34375 11.2387 6.43923 11.0081 6.60918 10.8382C6.77914 10.6682 7.00965 10.5728 7.25 10.5728C7.49035 10.5728 7.72086 10.6682 7.89082 10.8382C8.06077 11.0081 8.15625 11.2387 8.15625 11.479V22.0519H20.8438V11.479C20.8438 11.2387 20.9392 11.0081 21.1092 10.8382C21.2791 10.6682 21.5096 10.5728 21.75 10.5728C21.9904 10.5728 22.2209 10.6682 22.3908 10.8382C22.5608 11.0081 22.6562 11.2387 22.6562 11.479V22.9582C22.6531 23.1976 22.5566 23.4262 22.3874 23.5955C22.2181 23.7648 21.9894 23.8613 21.75 23.8644Z" fill="black"/>
<path id="Vector_3" d="M16.9166 23.8646C16.6772 23.8615 16.4485 23.765 16.2792 23.5957C16.1099 23.4264 16.0135 23.1977 16.0103 22.9583V15.4062H12.9895V22.9583C12.9895 23.1987 12.894 23.4292 12.7241 23.5991C12.5541 23.7691 12.3236 23.8646 12.0833 23.8646C11.8429 23.8646 11.6124 23.7691 11.4424 23.5991C11.2725 23.4292 11.177 23.1987 11.177 22.9583V14.5C11.1801 14.2606 11.2766 14.0319 11.4459 13.8626C11.6152 13.6934 11.8439 13.5969 12.0833 13.5938H16.9166C17.156 13.5969 17.3847 13.6934 17.5539 13.8626C17.7232 14.0319 17.8197 14.2606 17.8228 14.5V22.9583C17.8197 23.1977 17.7232 23.4264 17.5539 23.5957C17.3847 23.765 17.156 23.8615 16.9166 23.8646Z" fill="black"/>
</g>
</svg>
