<svg width="75" height="75" viewBox="0 0 75 75" fill="none" xmlns="http://www.w3.org/2000/svg">
<g id="mdi:file-document-edit-outline">
<path id="Vector" d="M25 37.5H50V43.75H25V37.5ZM31.25 62.5H18.75V12.5H40.625V28.125H56.25V37.8125L62.5 31.5625V25L43.75 6.25H18.75C17.0924 6.25 15.5027 6.90848 14.3306 8.08058C13.1585 9.25268 12.5 10.8424 12.5 12.5V62.5C12.5 64.1576 13.1585 65.7473 14.3306 66.9194C15.5027 68.0915 17.0924 68.75 18.75 68.75H31.25V62.5ZM25 56.25H37.8125L40.625 53.4375V50H25V56.25ZM63.125 40.625C63.4375 40.625 64.0625 40.9375 64.375 41.25L68.4375 45.3125C69.0625 45.9375 69.0625 47.1875 68.4375 47.8125L65.3125 50.9375L58.75 44.375L61.875 41.25C62.1875 40.9375 62.5 40.625 63.125 40.625ZM63.125 52.8125L44.0625 71.875H37.5V65.3125L56.5625 46.25L63.125 52.8125Z" fill="#D9D9D9"/>
</g>
</svg>
