<svg width="18" height="22" viewBox="0 0 18 22" fill="none" xmlns="http://www.w3.org/2000/svg">
<g id="edit 1" clip-path="url(#clip0_1890_3048)">
<path id="Vector" d="M11.116 3.69531L1.21212 15.8009C1.16229 15.862 1.12631 15.9391 1.10918 16.022L0.0114342 21.4072C-0.0214026 21.5694 0.0175732 21.7418 0.11437 21.8601C0.187611 21.9496 0.287406 21.9991 0.389485 21.9991C0.420752 21.9991 0.452732 21.9944 0.483855 21.9848L4.88998 20.643C4.95865 20.622 5.02104 20.5782 5.07087 20.5173L14.9756 8.41261L11.116 3.69531Z" fill="#3F3F3F"/>
<path id="Vector_2" d="M17.4291 2.04501L16.3267 0.69756C15.5899 -0.203008 14.3057 -0.202136 13.5697 0.69756L12.2192 2.34811L16.0787 7.06523L17.4291 5.41468C17.7972 4.96501 17.9999 4.36649 17.9999 3.72993C17.9999 3.09338 17.7972 2.49486 17.4291 2.04501Z" fill="#3F3F3F"/>
</g>
<defs>
<clipPath id="clip0_1890_3048">
<rect width="18" height="22" fill="white"/>
</clipPath>
</defs>
</svg>
