<svg width="55" height="55" viewBox="0 0 55 55" fill="none" xmlns="http://www.w3.org/2000/svg">
<g id="ion:eye-outline">
<path id="Vector" d="M27.4636 12.0312C19.0911 12.0312 10.5027 16.8771 3.74161 26.5687C3.54862 26.8483 3.44286 27.1789 3.4377 27.5187C3.43254 27.8585 3.5282 28.1921 3.7126 28.4775C8.90753 36.6094 17.381 42.9688 27.4636 42.9688C37.4366 42.9688 46.0841 36.59 51.2887 28.4399C51.4688 28.1601 51.5645 27.8344 51.5645 27.5016C51.5645 27.1688 51.4688 26.8431 51.2887 26.5633C46.0723 18.5066 37.3614 12.0312 27.4636 12.0312Z" stroke="#3F3F3F" stroke-width="3" stroke-linecap="round" stroke-linejoin="round"/>
<path id="Vector_2" d="M27.5 36.0938C32.2462 36.0938 36.0938 32.2462 36.0938 27.5C36.0938 22.7538 32.2462 18.9062 27.5 18.9062C22.7538 18.9062 18.9062 22.7538 18.9062 27.5C18.9062 32.2462 22.7538 36.0938 27.5 36.0938Z" stroke="#3F3F3F" stroke-width="3" stroke-miterlimit="10"/>
</g>
</svg>
