<svg width="23" height="23" viewBox="0 0 23 23" fill="none" xmlns="http://www.w3.org/2000/svg">
<g id="healthicons:health">
<path id="Vector" fill-rule="evenodd" clip-rule="evenodd" d="M10.384 3.25879C10.7985 3.00773 11.2739 2.875 11.7585 2.875C12.2431 2.875 12.7185 3.00773 13.133 3.25879L14.1091 3.85583C15.4785 4.69294 17.0382 4.87934 18.6051 5.06717C19.1116 5.12802 19.6185 5.1884 20.1202 5.27129C20.1202 5.27129 20.1312 6.15009 20.1197 6.54875L20.0196 9.97527C19.9333 12.914 18.6267 15.7004 16.3851 17.7253C15.3276 18.6803 14.2337 19.5433 12.9768 20.2601C12.6064 20.4697 12.1911 20.5872 11.7659 20.6028C11.3406 20.6184 10.9178 20.5316 10.5331 20.3497C9.08166 19.6597 7.79653 18.7848 6.62305 17.7253C4.38151 15.7004 3.07483 12.914 2.98905 9.97527L2.88939 6.55977C2.87741 6.15536 2.88939 5.27129 2.88939 5.27129C3.29668 5.22338 3.71164 5.18361 4.12995 5.14384C5.97618 4.96846 7.88374 4.78734 9.4487 3.83092L10.3845 3.25879H10.384ZM10.5417 10.5421V7.18796H12.4583V10.5421H15.8125V12.4588H12.4583V15.813H10.5417V12.4588H7.18751V10.5421H10.5417Z" fill="black"/>
</g>
</svg>
