<svg width="32" height="32" viewBox="0 0 32 32" fill="none" xmlns="http://www.w3.org/2000/svg">
<circle cx="16" cy="16" r="16" fill="#FFF4CE"/>
<path d="M16.0007 16.6666L9.33398 12.5066V12C9.33398 11.26 9.92732 10.6666 10.6673 10.6666H21.334C21.6876 10.6666 22.0267 10.8071 22.2768 11.0572C22.5268 11.3072 22.6673 11.6463 22.6673 12V12.5L16.0007 16.6666ZM22.6673 20C22.6673 20.3536 22.5268 20.6927 22.2768 20.9428C22.0267 21.1928 21.6876 21.3333 21.334 21.3333H10.6673C9.92732 21.3333 9.33398 20.7333 9.33398 20V14.0733L10.6673 14.9066V20H21.334V14.9066L22.6673 14.0733V20Z" fill="#F7A500"/>
</svg>
