<svg width="18" height="19" viewBox="0 0 18 19" fill="none" xmlns="http://www.w3.org/2000/svg">
<g clip-path="url(#clip0_3019_17743)">
<path d="M16.5332 2.76538C15.7375 1.96825 14.6943 1.46548 13.575 1.33966C12.4558 1.21385 11.327 1.47247 10.3741 2.07305L12.3702 4.1051C12.45 4.19335 12.5114 4.29654 12.551 4.4087C12.5906 4.52086 12.6075 4.63976 12.6008 4.75851C12.5941 4.87726 12.5639 4.99351 12.512 5.10051C12.4601 5.20751 12.3874 5.30315 12.2983 5.38188C12.1321 5.52851 11.9175 5.60856 11.6959 5.60667C11.5689 5.60764 11.4431 5.58169 11.3269 5.53055C11.2107 5.47941 11.1066 5.40423 11.0215 5.30995L8.48593 2.76538C8.12233 2.40211 7.70355 2.09865 7.24512 1.86624C6.30979 1.38708 5.24688 1.21601 4.20845 1.37751C3.17002 1.53901 2.20926 2.0248 1.46364 2.76538C0.530599 3.85143 0.0175781 5.23585 0.0175781 6.66766C0.0175781 8.09946 0.530599 9.48388 1.46364 10.5699C3.13604 12.3682 7.20016 16.5312 9.02541 16.5312C10.4461 16.5312 13.2334 14.0046 15.1665 12.0355C15.6521 11.55 16.0657 11.1364 16.4253 10.7318L16.5602 10.5879C17.4943 9.49739 18.0055 8.10752 18.0005 6.67163C17.9956 5.23575 17.4749 3.84944 16.5332 2.76538ZM10.7967 10.498H9.89758V11.3971C9.89758 11.6356 9.80285 11.8643 9.63423 12.0329C9.46561 12.2015 9.23691 12.2963 8.99844 12.2963C8.75997 12.2963 8.53127 12.2015 8.36265 12.0329C8.19403 11.8643 8.0993 11.6356 8.0993 11.3971V10.498H7.20016C6.96169 10.498 6.73299 10.4033 6.56437 10.2346C6.39575 10.066 6.30102 9.83732 6.30102 9.59886C6.30102 9.36039 6.39575 9.13169 6.56437 8.96307C6.73299 8.79445 6.96169 8.69971 7.20016 8.69971H8.0993V7.80057C8.0993 7.56211 8.19403 7.33341 8.36265 7.16478C8.53127 6.99616 8.75997 6.90143 8.99844 6.90143C9.23691 6.90143 9.46561 6.99616 9.63423 7.16478C9.80285 7.33341 9.89758 7.56211 9.89758 7.80057V8.69971H10.7967C11.0352 8.69971 11.2639 8.79445 11.4325 8.96307C11.6011 9.13169 11.6959 9.36039 11.6959 9.59886C11.6959 9.83732 11.6011 10.066 11.4325 10.2346C11.2639 10.4033 11.0352 10.498 10.7967 10.498Z" fill="#838383"/>
</g>
<defs>
<clipPath id="clip0_3019_17743">
<rect width="18" height="18" fill="white" transform="translate(0 0.111328)"/>
</clipPath>
</defs>
</svg>
