<svg width="18" height="19" viewBox="0 0 18 19" fill="none" xmlns="http://www.w3.org/2000/svg">
<g clip-path="url(#clip0_3019_17751)">
<path d="M15.7308 4.73043L11.7885 0.854576C11.3077 0.393173 10.6346 0.116324 9.86541 0.116324H4.19231C2.75 0.0240378 1.5 1.22371 1.5 2.60794V15.5274C1.5 16.9116 2.65385 18.1113 4.19231 18.1113H13.8077C15.25 18.1113 16.5 17.004 16.5 15.5274V6.48379C16.5 5.83781 16.2115 5.19184 15.7308 4.73043ZM6.11539 7.40664H9C9.38465 7.40664 9.76922 7.68348 9.76922 8.14491C9.76922 8.60625 9.48075 8.88309 9 8.88309H6.11539C5.73077 8.88309 5.34615 8.60625 5.34615 8.14491C5.34615 7.68348 5.73077 7.40664 6.11539 7.40664ZM11.8846 12.5744H6.11539C5.73077 12.5744 5.34615 12.2976 5.34615 11.8362C5.34615 11.3747 5.63462 11.0979 6.11539 11.0979H11.8846C12.2692 11.0979 12.6538 11.3747 12.6538 11.8362C12.6538 12.2976 12.2692 12.5744 11.8846 12.5744Z" fill="#838383"/>
</g>
<defs>
<clipPath id="clip0_3019_17751">
<rect width="18" height="18" fill="white" transform="translate(0 0.111328)"/>
</clipPath>
</defs>
</svg>
