<svg width="18" height="19" viewBox="0 0 18 19" fill="none" xmlns="http://www.w3.org/2000/svg">
<g clip-path="url(#clip0_3019_17747)">
<path d="M3.31138 17.7507H14.6874C16.3434 17.7507 17.6394 16.4547 17.6394 14.7987V3.4227C17.6394 1.7667 16.3434 0.470703 14.6874 0.470703H3.31138C1.65538 0.470703 0.359375 1.7667 0.359375 3.4227V14.7987C0.359375 16.4547 1.65538 17.7507 3.31138 17.7507ZM7.12738 4.4307H14.0394C14.3994 4.4307 14.7594 4.7187 14.7594 5.1507C14.7594 5.5107 14.3994 5.8707 14.0394 5.8707H7.12738C6.69537 5.8707 6.40737 5.5107 6.40737 5.1507C6.40737 4.7187 6.69537 4.4307 7.12738 4.4307ZM7.12738 8.3907H14.0394C14.3994 8.3907 14.7594 8.7507 14.7594 9.1107C14.7594 9.4707 14.3994 9.8307 14.0394 9.8307H7.12738C6.69537 9.8307 6.40737 9.4707 6.40737 9.1107C6.40737 8.7507 6.69537 8.3907 7.12738 8.3907ZM7.12738 12.3507H14.0394C14.3994 12.3507 14.7594 12.7107 14.7594 13.0707C14.7594 13.5027 14.3994 13.7907 14.0394 13.7907H7.12738C6.69537 13.7907 6.40737 13.5027 6.40737 13.0707C6.40737 12.7107 6.69537 12.3507 7.12738 12.3507ZM3.52738 4.5027C3.88738 4.2867 4.17537 4.3587 4.46338 4.5747C4.75138 4.7907 4.75138 5.2947 4.46338 5.5827C4.17537 5.9427 3.67138 5.8707 3.45538 5.6547C3.16738 5.3667 3.09538 4.8627 3.52738 4.5027ZM4.46338 9.6147C4.17537 9.9027 3.74338 9.9027 3.45538 9.6147C3.23938 9.3987 3.16738 8.9667 3.45538 8.6067C3.74338 8.3187 4.17537 8.3187 4.46338 8.6067C4.75138 8.8947 4.75138 9.3267 4.46338 9.6147ZM3.45538 12.5667C3.67138 12.2787 4.24738 12.2787 4.46338 12.5667C4.75138 12.8547 4.75138 13.3587 4.46338 13.5747C4.17537 13.8627 3.74338 13.8627 3.45538 13.5747C3.16738 13.3587 3.16738 12.9267 3.45538 12.5667Z" fill="#838383"/>
</g>
<defs>
<clipPath id="clip0_3019_17747">
<rect width="18" height="18" fill="white" transform="translate(0 0.111328)"/>
</clipPath>
</defs>
</svg>
