<svg width="18" height="19" viewBox="0 0 18 19" fill="none" xmlns="http://www.w3.org/2000/svg">
<g clip-path="url(#clip0_3019_17735)">
<path d="M0.667964 0.77207C1.09335 0.350195 1.6664 0.118164 2.26406 0.12168C3.20273 0.118164 4.12031 0.118164 4.99218 0.118164H6.37734C7.56914 0.12168 8.55703 1.10957 8.57812 2.32598C8.60273 3.77793 8.60273 5.12793 8.57812 6.44629C8.55351 7.7084 7.57968 8.67168 6.31054 8.68574C5.62499 8.69629 4.93593 8.6998 4.26445 8.6998C2.31679 8.71738 0.179292 8.96348 0.0140574 6.37949C0.0210886 5.62363 0.0140574 4.87832 0.0140574 4.12598C0.0597605 3.00098 -0.246099 1.62637 0.667964 0.77207Z" fill="white"/>
<path d="M8.58077 13.4568C8.58077 14.2021 8.57726 14.9755 8.58429 15.7349C8.61944 17.0076 7.5753 18.1255 6.30265 18.1044C5.24796 18.0798 4.1089 18.108 3.04015 18.1009C2.19991 18.1396 1.26476 18.0939 0.6671 17.4435C0.0870217 16.9056 -0.0395408 16.0584 0.00967794 15.2849C0.00616231 14.1283 0.00616231 12.933 0.0167092 11.7552C0.0202248 10.7498 0.698741 9.87437 1.66905 9.61773C2.57608 9.43491 3.42335 9.56148 4.44288 9.52281C5.02999 9.52281 5.61358 9.5228 6.20069 9.52632C8.62999 9.65288 8.65812 11.5197 8.58077 13.4568Z" fill="white"/>
<path d="M16.7384 10.7881C19.4208 13.4388 17.4872 18.1287 13.7079 18.1041C9.95326 18.1252 7.97045 13.4424 10.6775 10.7951C12.2771 9.12516 15.1388 9.10759 16.7384 10.7881Z" fill="white"/>
<path d="M9.42139 6.40068C9.40381 4.96982 9.40381 3.65146 9.42139 2.37529C9.41787 1.13428 10.4233 0.121777 11.6644 0.118262H11.6925C13.039 0.107715 14.3819 0.107715 15.7882 0.118262C16.9519 0.100684 17.9995 1.15889 17.9855 2.32256C17.9925 3.10654 17.9855 3.87646 17.9855 4.65342C17.9468 5.77842 18.228 7.17412 17.328 8.0249C16.4105 8.98467 14.8882 8.62256 13.6999 8.69638C13.0249 8.69638 12.3499 8.69287 11.696 8.68232C10.4444 8.68584 9.4249 7.67685 9.42139 6.42178C9.42139 6.41826 9.42139 6.41123 9.42139 6.40068Z" fill="white"/>
</g>
<defs>
<clipPath id="clip0_3019_17735">
<rect width="18" height="18" fill="white" transform="translate(0 0.111328)"/>
</clipPath>
</defs>
</svg>
