<svg width="113" height="24" viewBox="0 0 113 24" fill="none" xmlns="http://www.w3.org/2000/svg">
<rect y="0.5" width="113" height="23" rx="11.5" fill="#FFF4CE"/>
<path d="M15.207 6.41663V11.4583H16.582V15.5833L19.7904 10.0833H17.957L19.7904 6.41663L15.207 6.41663Z" fill="#F7A500"/>
<path d="M25.8987 15.5V7.832H27.4707V15.5H25.8987ZM26.7987 12.644V11.324H30.7707V12.644H26.7987ZM26.3547 9.158V7.832H30.8607V9.158H26.3547ZM35.2284 15.5L35.2824 14.06L35.2404 13.928V12.086L35.2344 11.822C35.2344 11.438 35.1284 11.156 34.9164 10.976C34.7084 10.796 34.3664 10.706 33.8904 10.706C33.4864 10.706 33.1064 10.76 32.7504 10.868C32.3984 10.972 32.0724 11.094 31.7724 11.234L31.9044 10.01C32.0804 9.918 32.2804 9.832 32.5044 9.752C32.7324 9.668 32.9864 9.6 33.2664 9.548C33.5464 9.496 33.8484 9.47 34.1724 9.47C34.6524 9.47 35.0584 9.528 35.3904 9.644C35.7224 9.756 35.9864 9.918 36.1824 10.13C36.3824 10.342 36.5264 10.596 36.6144 10.892C36.7024 11.184 36.7464 11.508 36.7464 11.864V15.5H35.2284ZM33.3024 15.638C32.7184 15.638 32.2724 15.492 31.9644 15.2C31.6604 14.908 31.5084 14.492 31.5084 13.952V13.784C31.5084 13.212 31.6844 12.79 32.0364 12.518C32.3884 12.242 32.9464 12.052 33.7104 11.948L35.3784 11.72L35.4684 12.71L33.9324 12.932C33.5964 12.976 33.3564 13.056 33.2124 13.172C33.0724 13.288 33.0024 13.458 33.0024 13.682V13.742C33.0024 13.962 33.0704 14.134 33.2064 14.258C33.3464 14.378 33.5644 14.438 33.8604 14.438C34.1244 14.438 34.3504 14.396 34.5384 14.312C34.7264 14.228 34.8804 14.118 35.0004 13.982C35.1244 13.842 35.2124 13.686 35.2644 13.514L35.4804 14.276H35.2164C35.1524 14.528 35.0484 14.758 34.9044 14.966C34.7644 15.17 34.5664 15.334 34.3104 15.458C34.0544 15.578 33.7184 15.638 33.3024 15.638ZM40.0062 15.644C39.5342 15.644 39.1142 15.598 38.7462 15.506C38.3822 15.418 38.0722 15.318 37.8162 15.206L37.6782 13.874C37.9822 14.014 38.3162 14.136 38.6802 14.24C39.0482 14.344 39.4522 14.396 39.8922 14.396C40.2762 14.396 40.5542 14.348 40.7262 14.252C40.8982 14.152 40.9842 14.004 40.9842 13.808V13.772C40.9842 13.64 40.9442 13.532 40.8642 13.448C40.7882 13.364 40.6522 13.288 40.4562 13.22C40.2602 13.148 39.9842 13.072 39.6282 12.992C39.1362 12.876 38.7462 12.742 38.4582 12.59C38.1742 12.434 37.9702 12.244 37.8462 12.02C37.7222 11.792 37.6602 11.52 37.6602 11.204V11.15C37.6602 10.594 37.8582 10.176 38.2542 9.896C38.6502 9.612 39.2362 9.47 40.0122 9.47C40.4722 9.47 40.8782 9.516 41.2302 9.608C41.5862 9.696 41.8822 9.802 42.1182 9.926L42.2562 11.15C41.9762 11.018 41.6622 10.908 41.3142 10.82C40.9662 10.728 40.5922 10.682 40.1922 10.682C39.9322 10.682 39.7262 10.704 39.5742 10.748C39.4262 10.788 39.3202 10.846 39.2562 10.922C39.1922 10.998 39.1602 11.09 39.1602 11.198V11.228C39.1602 11.348 39.1942 11.452 39.2622 11.54C39.3342 11.628 39.4642 11.708 39.6522 11.78C39.8402 11.848 40.1042 11.922 40.4442 12.002C40.9402 12.106 41.3382 12.228 41.6382 12.368C41.9382 12.508 42.1562 12.688 42.2922 12.908C42.4282 13.124 42.4962 13.408 42.4962 13.76V13.832C42.4962 14.44 42.2902 14.894 41.8782 15.194C41.4662 15.494 40.8422 15.644 40.0062 15.644ZM45.702 15.626C45.202 15.626 44.802 15.552 44.502 15.404C44.206 15.252 43.992 15.024 43.86 14.72C43.728 14.416 43.662 14.042 43.662 13.598V10.166H45.186V13.37C45.186 13.69 45.258 13.926 45.402 14.078C45.55 14.226 45.808 14.3 46.176 14.3C46.392 14.3 46.6 14.278 46.8 14.234C47 14.186 47.184 14.124 47.352 14.048L47.22 15.332C47.02 15.424 46.79 15.496 46.53 15.548C46.274 15.6 45.998 15.626 45.702 15.626ZM42.81 10.874V9.662H47.298L47.166 10.874H42.81ZM43.68 9.776L43.674 8.216L45.204 8.06L45.144 9.776H43.68ZM50.8989 15.644C49.8909 15.644 49.1409 15.412 48.6489 14.948C48.1569 14.484 47.9109 13.812 47.9109 12.932V12.164C47.9109 11.292 48.1409 10.622 48.6009 10.154C49.0609 9.686 49.7289 9.452 50.6049 9.452C51.1969 9.452 51.6909 9.556 52.0869 9.764C52.4829 9.972 52.7789 10.268 52.9749 10.652C53.1749 11.032 53.2749 11.488 53.2749 12.02V12.23C53.2749 12.374 53.2669 12.522 53.2509 12.674C53.2389 12.822 53.2209 12.962 53.1969 13.094H51.8049C51.8169 12.874 51.8229 12.666 51.8229 12.47C51.8269 12.27 51.8289 12.09 51.8289 11.93C51.8289 11.654 51.7849 11.42 51.6969 11.228C51.6089 11.032 51.4749 10.884 51.2949 10.784C51.1149 10.684 50.8849 10.634 50.6049 10.634C50.1929 10.634 49.8889 10.748 49.6929 10.976C49.4969 11.204 49.3989 11.528 49.3989 11.948V12.494L49.4049 12.668V13.13C49.4049 13.314 49.4329 13.484 49.4889 13.64C49.5489 13.796 49.6469 13.932 49.7829 14.048C49.9189 14.16 50.0989 14.248 50.3229 14.312C50.5509 14.376 50.8349 14.408 51.1749 14.408C51.5429 14.408 51.8929 14.368 52.2249 14.288C52.5609 14.204 52.8789 14.092 53.1789 13.952L53.0469 15.164C52.7789 15.312 52.4629 15.428 52.0989 15.512C51.7389 15.6 51.3389 15.644 50.8989 15.644ZM48.7269 13.094V12.074H52.8849V13.094H48.7269ZM55.8496 12.08L55.4596 11.054H55.8316C55.9396 10.578 56.1356 10.204 56.4196 9.932C56.7036 9.66 57.0976 9.524 57.6016 9.524C57.7056 9.524 57.7996 9.532 57.8836 9.548C57.9676 9.56 58.0436 9.576 58.1116 9.596L58.1956 11.132C58.1076 11.104 58.0056 11.084 57.8896 11.072C57.7736 11.056 57.6516 11.048 57.5236 11.048C57.1156 11.048 56.7676 11.138 56.4796 11.318C56.1956 11.498 55.9856 11.752 55.8496 12.08ZM54.3556 15.5V9.614H55.8196L55.7536 11.42L55.8916 11.474V15.5H54.3556ZM64.8289 15.638C64.4769 15.638 64.1789 15.582 63.9349 15.47C63.6909 15.354 63.4929 15.192 63.3409 14.984C63.1929 14.776 63.0869 14.532 63.0229 14.252H62.5849L62.9749 13.076C62.9829 13.356 63.0389 13.592 63.1429 13.784C63.2509 13.976 63.3989 14.12 63.5869 14.216C63.7789 14.312 64.0029 14.36 64.2589 14.36C64.6469 14.36 64.9429 14.248 65.1469 14.024C65.3509 13.796 65.4529 13.46 65.4529 13.016V12.05C65.4529 11.61 65.3529 11.278 65.1529 11.054C64.9529 10.83 64.6569 10.718 64.2649 10.718C64.0409 10.718 63.8389 10.762 63.6589 10.85C63.4789 10.934 63.3289 11.048 63.2089 11.192C63.0889 11.336 63.0029 11.502 62.9509 11.69L62.5909 10.862H63.0169C63.0809 10.606 63.1829 10.374 63.3229 10.166C63.4669 9.954 63.6649 9.788 63.9169 9.668C64.1729 9.544 64.4949 9.482 64.8829 9.482C65.5749 9.482 66.1009 9.706 66.4609 10.154C66.8209 10.598 67.0009 11.256 67.0009 12.128V12.944C67.0009 13.824 66.8189 14.494 66.4549 14.954C66.0949 15.41 65.5529 15.638 64.8289 15.638ZM61.4689 17.564V9.614H63.0049L62.9449 11.108L62.9749 11.378V13.736L62.9569 14.012L62.9989 15.626V17.564H61.4689ZM69.6308 12.08L69.2408 11.054H69.6128C69.7208 10.578 69.9168 10.204 70.2008 9.932C70.4848 9.66 70.8788 9.524 71.3828 9.524C71.4868 9.524 71.5808 9.532 71.6648 9.548C71.7488 9.56 71.8248 9.576 71.8928 9.596L71.9768 11.132C71.8888 11.104 71.7868 11.084 71.6708 11.072C71.5548 11.056 71.4328 11.048 71.3048 11.048C70.8968 11.048 70.5488 11.138 70.2608 11.318C69.9768 11.498 69.7668 11.752 69.6308 12.08ZM68.1368 15.5V9.614H69.6008L69.5348 11.42L69.6728 11.474V15.5H68.1368ZM75.2397 15.662C74.3277 15.662 73.6357 15.428 73.1637 14.96C72.6957 14.492 72.4617 13.826 72.4617 12.962V12.164C72.4617 11.296 72.6957 10.628 73.1637 10.16C73.6357 9.688 74.3277 9.452 75.2397 9.452C76.1477 9.452 76.8357 9.688 77.3037 10.16C77.7717 10.628 78.0057 11.296 78.0057 12.164V12.962C78.0057 13.826 77.7717 14.492 77.3037 14.96C76.8397 15.428 76.1517 15.662 75.2397 15.662ZM75.2397 14.432C75.6397 14.432 75.9437 14.312 76.1517 14.072C76.3637 13.832 76.4697 13.488 76.4697 13.04V12.086C76.4697 11.63 76.3637 11.282 76.1517 11.042C75.9437 10.798 75.6397 10.676 75.2397 10.676C74.8357 10.676 74.5277 10.798 74.3157 11.042C74.1077 11.282 74.0037 11.63 74.0037 12.086V13.04C74.0037 13.488 74.1077 13.832 74.3157 14.072C74.5277 14.312 74.8357 14.432 75.2397 14.432ZM81.583 15.65C80.675 15.65 80.001 15.41 79.561 14.93C79.125 14.45 78.907 13.776 78.907 12.908V12.188C78.907 11.324 79.127 10.654 79.567 10.178C80.007 9.702 80.679 9.464 81.583 9.464C81.819 9.464 82.039 9.484 82.243 9.524C82.451 9.56 82.639 9.61 82.807 9.674C82.979 9.738 83.129 9.806 83.257 9.878L83.383 11.168C83.187 11.044 82.967 10.94 82.723 10.856C82.483 10.772 82.205 10.73 81.889 10.73C81.393 10.73 81.029 10.858 80.797 11.114C80.569 11.366 80.455 11.734 80.455 12.218V12.854C80.455 13.334 80.573 13.704 80.809 13.964C81.049 14.224 81.417 14.354 81.913 14.354C82.229 14.354 82.509 14.314 82.753 14.234C82.997 14.15 83.225 14.048 83.437 13.928L83.311 15.224C83.115 15.336 82.869 15.434 82.573 15.518C82.277 15.606 81.947 15.65 81.583 15.65ZM87.1099 15.644C86.1019 15.644 85.3519 15.412 84.8599 14.948C84.3679 14.484 84.1219 13.812 84.1219 12.932V12.164C84.1219 11.292 84.3519 10.622 84.8119 10.154C85.2719 9.686 85.9399 9.452 86.8159 9.452C87.4079 9.452 87.9019 9.556 88.2979 9.764C88.6939 9.972 88.9899 10.268 89.1859 10.652C89.3859 11.032 89.4859 11.488 89.4859 12.02V12.23C89.4859 12.374 89.4779 12.522 89.4619 12.674C89.4499 12.822 89.4319 12.962 89.4079 13.094H88.0159C88.0279 12.874 88.0339 12.666 88.0339 12.47C88.0379 12.27 88.0399 12.09 88.0399 11.93C88.0399 11.654 87.9959 11.42 87.9079 11.228C87.8199 11.032 87.6859 10.884 87.5059 10.784C87.3259 10.684 87.0959 10.634 86.8159 10.634C86.4039 10.634 86.0999 10.748 85.9039 10.976C85.7079 11.204 85.6099 11.528 85.6099 11.948V12.494L85.6159 12.668V13.13C85.6159 13.314 85.6439 13.484 85.6999 13.64C85.7599 13.796 85.8579 13.932 85.9939 14.048C86.1299 14.16 86.3099 14.248 86.5339 14.312C86.7619 14.376 87.0459 14.408 87.3859 14.408C87.7539 14.408 88.1039 14.368 88.4359 14.288C88.7719 14.204 89.0899 14.092 89.3899 13.952L89.2579 15.164C88.9899 15.312 88.6739 15.428 88.3099 15.512C87.9499 15.6 87.5499 15.644 87.1099 15.644ZM84.9379 13.094V12.074H89.0959V13.094H84.9379ZM92.6117 15.644C92.1397 15.644 91.7197 15.598 91.3517 15.506C90.9877 15.418 90.6777 15.318 90.4217 15.206L90.2837 13.874C90.5877 14.014 90.9217 14.136 91.2857 14.24C91.6537 14.344 92.0577 14.396 92.4977 14.396C92.8817 14.396 93.1597 14.348 93.3317 14.252C93.5037 14.152 93.5897 14.004 93.5897 13.808V13.772C93.5897 13.64 93.5497 13.532 93.4697 13.448C93.3937 13.364 93.2577 13.288 93.0617 13.22C92.8657 13.148 92.5897 13.072 92.2337 12.992C91.7417 12.876 91.3517 12.742 91.0637 12.59C90.7797 12.434 90.5757 12.244 90.4517 12.02C90.3277 11.792 90.2657 11.52 90.2657 11.204V11.15C90.2657 10.594 90.4637 10.176 90.8597 9.896C91.2557 9.612 91.8417 9.47 92.6177 9.47C93.0777 9.47 93.4837 9.516 93.8357 9.608C94.1917 9.696 94.4877 9.802 94.7237 9.926L94.8617 11.15C94.5817 11.018 94.2677 10.908 93.9197 10.82C93.5717 10.728 93.1977 10.682 92.7977 10.682C92.5377 10.682 92.3317 10.704 92.1797 10.748C92.0317 10.788 91.9257 10.846 91.8617 10.922C91.7977 10.998 91.7657 11.09 91.7657 11.198V11.228C91.7657 11.348 91.7997 11.452 91.8677 11.54C91.9397 11.628 92.0697 11.708 92.2577 11.78C92.4457 11.848 92.7097 11.922 93.0497 12.002C93.5457 12.106 93.9437 12.228 94.2437 12.368C94.5437 12.508 94.7617 12.688 94.8977 12.908C95.0337 13.124 95.1017 13.408 95.1017 13.76V13.832C95.1017 14.44 94.8957 14.894 94.4837 15.194C94.0717 15.494 93.4477 15.644 92.6117 15.644ZM98.0609 15.644C97.5889 15.644 97.1689 15.598 96.8009 15.506C96.4369 15.418 96.1269 15.318 95.8709 15.206L95.7329 13.874C96.0369 14.014 96.3709 14.136 96.7349 14.24C97.1029 14.344 97.5069 14.396 97.9469 14.396C98.3309 14.396 98.6089 14.348 98.7809 14.252C98.9529 14.152 99.0389 14.004 99.0389 13.808V13.772C99.0389 13.64 98.9989 13.532 98.9189 13.448C98.8429 13.364 98.7069 13.288 98.5109 13.22C98.3149 13.148 98.0389 13.072 97.6829 12.992C97.1909 12.876 96.8009 12.742 96.5129 12.59C96.2289 12.434 96.0249 12.244 95.9009 12.02C95.7769 11.792 95.7149 11.52 95.7149 11.204V11.15C95.7149 10.594 95.9129 10.176 96.3089 9.896C96.7049 9.612 97.2909 9.47 98.0669 9.47C98.5269 9.47 98.9329 9.516 99.2849 9.608C99.6409 9.696 99.9369 9.802 100.173 9.926L100.311 11.15C100.031 11.018 99.7169 10.908 99.3689 10.82C99.0209 10.728 98.6469 10.682 98.2469 10.682C97.9869 10.682 97.7809 10.704 97.6289 10.748C97.4809 10.788 97.3749 10.846 97.3109 10.922C97.2469 10.998 97.2149 11.09 97.2149 11.198V11.228C97.2149 11.348 97.2489 11.452 97.3169 11.54C97.3889 11.628 97.5189 11.708 97.7069 11.78C97.8949 11.848 98.1589 11.922 98.4989 12.002C98.9949 12.106 99.3929 12.228 99.6929 12.368C99.9929 12.508 100.211 12.688 100.347 12.908C100.483 13.124 100.551 13.408 100.551 13.76V13.832C100.551 14.44 100.345 14.894 99.9329 15.194C99.5209 15.494 98.8969 15.644 98.0609 15.644Z" fill="#845800"/>
</svg>
