<svg width="38" height="38" viewBox="0 0 38 38" fill="none" xmlns="http://www.w3.org/2000/svg">
<g id="tdesign:user-1">
<path id="Vector" d="M18.9998 6.33366C18.3761 6.33366 17.7584 6.45652 17.1821 6.69523C16.6058 6.93394 16.0822 7.28382 15.6411 7.7249C15.2 8.16598 14.8501 8.68962 14.6114 9.26591C14.3727 9.84221 14.2498 10.4599 14.2498 11.0837C14.2498 11.7074 14.3727 12.3251 14.6114 12.9014C14.8501 13.4777 15.2 14.0013 15.6411 14.4424C16.0822 14.8835 16.6058 15.2334 17.1821 15.4721C17.7584 15.7108 18.3761 15.8337 18.9998 15.8337C20.2596 15.8337 21.4678 15.3332 22.3586 14.4424C23.2494 13.5516 23.7498 12.3434 23.7498 11.0837C23.7498 9.82388 23.2494 8.6157 22.3586 7.7249C21.4678 6.8341 20.2596 6.33366 18.9998 6.33366ZM11.0832 11.0837C11.0832 8.98403 11.9172 6.97039 13.4019 5.48573C14.8866 4.00107 16.9002 3.16699 18.9998 3.16699C21.0995 3.16699 23.1131 4.00107 24.5978 5.48573C26.0824 6.97039 26.9165 8.98403 26.9165 11.0837C26.9165 13.1833 26.0824 15.1969 24.5978 16.6816C23.1131 18.1663 21.0995 19.0003 18.9998 19.0003C16.9002 19.0003 14.8866 18.1663 13.4019 16.6816C11.9172 15.1969 11.0832 13.1833 11.0832 11.0837ZM5.5415 30.0837C5.5415 27.984 6.37558 25.9704 7.86024 24.4857C9.3449 23.0011 11.3585 22.167 13.4582 22.167H24.5415C25.5811 22.167 26.6106 22.3718 27.5711 22.7696C28.5316 23.1675 29.4043 23.7506 30.1394 24.4857C30.8746 25.2209 31.4577 26.0936 31.8555 27.0541C32.2534 28.0146 32.4582 29.044 32.4582 30.0837V33.2503H29.2915V30.0837C29.2915 28.8239 28.7911 27.6157 27.9003 26.7249C27.0095 25.8341 25.8013 25.3337 24.5415 25.3337H13.4582C12.1984 25.3337 10.9902 25.8341 10.0994 26.7249C9.20862 27.6157 8.70817 28.8239 8.70817 30.0837V33.2503H5.5415V30.0837Z" fill="#7A7A7A"/>
</g>
</svg>
