<svg width="23" height="33" viewBox="0 0 23 33" fill="none" xmlns="http://www.w3.org/2000/svg">
<g id="&#240;&#159;&#166;&#134; icon &#34;building&#34;">
<path id="Vector" d="M8.19116 11.6634L8.20664 11.6455" stroke="#656565" stroke-width="3" stroke-linecap="round" stroke-linejoin="round"/>
<path id="Vector_2" d="M14.3826 11.6634L14.398 11.6455" stroke="#656565" stroke-width="3" stroke-linecap="round" stroke-linejoin="round"/>
<path id="Vector_3" d="M8.19116 18.095L8.20664 18.0771" stroke="#656565" stroke-width="3" stroke-linecap="round" stroke-linejoin="round"/>
<path id="Vector_4" d="M14.3826 18.095L14.398 18.0771" stroke="#656565" stroke-width="3" stroke-linecap="round" stroke-linejoin="round"/>
<path id="Vector_5" d="M8.19116 24.5257L8.20664 24.5078" stroke="#656565" stroke-width="3" stroke-linecap="round" stroke-linejoin="round"/>
<path id="Vector_6" d="M14.3826 24.5257L14.398 24.5078" stroke="#656565" stroke-width="3" stroke-linecap="round" stroke-linejoin="round"/>
<path id="Vector_7" d="M2 29.9763V6.18037C2 5.64758 2.41579 5.21567 2.92869 5.21567H11.2869V2.9647C11.2869 2.43191 11.7026 2 12.2156 2H19.645C20.158 2 20.5737 2.43191 20.5737 2.9647V29.9763C20.5737 30.5091 20.158 30.941 19.645 30.941H2.92869C2.41579 30.941 2 30.5091 2 29.9763Z" stroke="#656565" stroke-width="3" stroke-linecap="round" stroke-linejoin="round"/>
</g>
</svg>
