<svg width="49" height="49" viewBox="0 0 49 49" fill="none" xmlns="http://www.w3.org/2000/svg">
<g id="scooter 1">
<path id="Vector" d="M33.4542 13.4864C32.8364 12.6781 32.099 11.9753 31.2626 11.3975C30.6351 10.9641 29.9635 10.6096 29.2583 10.3382C29.397 9.88147 29.4719 9.39723 29.4719 8.89575C29.4719 6.15421 27.2415 3.92383 24.5 3.92383C21.7585 3.92383 19.5281 6.15421 19.5281 8.89575C19.5281 9.39723 19.603 9.88147 19.7417 10.3382C19.0365 10.6095 18.3649 10.9641 17.7375 11.3975C16.901 11.9752 16.1636 12.6781 15.5458 13.4864C14.9208 14.3041 14.4344 15.2088 14.1002 16.1753C13.7541 17.1761 13.5786 18.2232 13.5786 19.2874V30.2563C13.5786 31.3722 13.7711 32.4672 14.1508 33.511C14.5173 34.5185 15.0485 35.4537 15.7298 36.2905C16.9698 37.8137 18.6537 38.9265 20.5192 39.4667V40.4944C20.5192 43.0206 22.3049 45.0759 24.5 45.0759C26.695 45.0759 28.4808 43.0206 28.4808 40.4944V39.4667C30.3463 38.9265 32.0302 37.8137 33.2703 36.2905C33.9515 35.4536 34.4827 34.5185 34.8492 33.511C35.2288 32.4672 35.4213 31.3721 35.4213 30.2563V19.2874C35.4213 18.2232 35.2459 17.1761 34.8998 16.1753C34.5655 15.2088 34.0792 14.3041 33.4542 13.4864ZM24.5 5.39383C26.4309 5.39383 28.0019 6.9648 28.0019 8.89575C28.0019 10.8267 26.4309 12.3977 24.5 12.3977C22.569 12.3977 20.9981 10.8267 20.9981 8.89575C20.9981 6.9648 22.569 5.39383 24.5 5.39383ZM27.0108 40.4944C27.0108 42.2101 25.8845 43.6059 24.5 43.6059C23.1155 43.6059 21.9891 42.2101 21.9891 40.4944V31.4534C21.9891 29.7377 23.1155 28.3418 24.5 28.3418C25.8845 28.3418 27.0108 29.7377 27.0108 31.4534V40.4944ZM33.9513 30.2563C33.9513 33.7159 31.6993 36.805 28.4808 37.9245V31.4534C28.4808 28.9271 26.695 26.8718 24.5 26.8718C22.3049 26.8718 20.5191 28.9271 20.5191 31.4534V37.9245C17.3006 36.8049 15.0486 33.7159 15.0486 30.2563V19.2874C15.0486 15.891 17.2128 12.8361 20.376 11.6702C21.2702 12.9949 22.785 13.8677 24.5 13.8677C26.2149 13.8677 27.7298 12.9949 28.6239 11.6702C31.7872 12.8362 33.9513 15.891 33.9513 19.2874V30.2563Z" fill="black"/>
<path id="Vector_2" d="M24.4998 11.8257C26.1153 11.8257 27.4297 10.5113 27.4297 8.89577C27.4297 7.28018 26.1153 5.96582 24.4998 5.96582C22.8842 5.96582 21.5698 7.28018 21.5698 8.89577C21.5698 10.5113 22.8842 11.8257 24.4998 11.8257ZM24.4998 7.43582C25.3048 7.43582 25.9597 8.09076 25.9597 8.89577C25.9597 9.70078 25.3048 10.3557 24.4998 10.3557C23.6948 10.3557 23.0398 9.70078 23.0398 8.89577C23.0398 8.09076 23.6948 7.43582 24.4998 7.43582ZM16.8729 10.0188C16.8729 10.4248 17.202 10.7538 17.6079 10.7538C18.0138 10.7538 18.3429 10.4248 18.3429 10.0188V7.77267C18.3429 7.36675 18.0138 7.03767 17.6079 7.03767C17.202 7.03767 16.8729 7.36675 16.8729 7.77267V8.16077H11.6354C11.2295 8.16077 10.9004 8.48984 10.9004 8.89577C10.9004 9.3017 11.2295 9.63077 11.6354 9.63077H16.8729L16.8729 10.0188ZM37.3641 8.16077H32.1266V7.77267C32.1266 7.36675 31.7976 7.03767 31.3916 7.03767C30.9857 7.03767 30.6566 7.36675 30.6566 7.77267V10.0188C30.6566 10.4248 30.9857 10.7538 31.3916 10.7538C31.7976 10.7538 32.1266 10.4248 32.1266 10.0188V9.63078H37.3641C37.7701 9.63078 38.0991 9.3017 38.0991 8.89578C38.0991 8.48985 37.7701 8.16077 37.3641 8.16077Z" fill="black"/>
</g>
</svg>
