<svg width="18" height="22" viewBox="0 0 18 22" fill="none" xmlns="http://www.w3.org/2000/svg">
<g id="trash2 1">
<g id="Group">
<g id="Group_2">
<path id="Vector" d="M15.3281 2.57812H12.1927L11.8499 1.3218C11.6342 0.531223 11.0311 0 10.3493 0H7.65074C6.96888 0 6.36585 0.531223 6.14957 1.3218L5.80718 2.57812H2.67188C1.79951 2.57812 1.08984 3.44549 1.08984 4.51172V5.80078C1.08984 6.5187 1.61863 6.44531 2.18612 6.44531C7.05716 6.44531 11.4735 6.44531 16.3828 6.44531C16.6743 6.44531 16.9102 6.15704 16.9102 5.80078V4.51172C16.9102 3.44549 16.2005 2.57812 15.3281 2.57812ZM6.91921 2.57812L7.15018 1.72966C7.22229 1.46592 7.42363 1.28906 7.65074 1.28906H10.3493C10.5764 1.28906 10.7777 1.46592 10.8493 1.72966L11.0805 2.57812H6.91921Z" fill="#3F3F3F"/>
</g>
</g>
<g id="Group_3">
<g id="Group_4">
<path id="Vector_2" d="M2.27344 7.82031L3.11427 20.2414C3.18894 21.2441 3.86616 22 4.68962 22H13.3105C14.1339 22 14.8111 21.2441 14.8863 20.2357L15.7267 7.82031H2.27344ZM6.3633 18.7773C6.3633 19.627 5.30862 19.6304 5.30862 18.7773V9.75391C5.30862 8.90429 6.3633 8.9008 6.3633 9.75391V18.7773ZM9.52737 18.7773C9.52737 19.627 8.47268 19.6304 8.47268 18.7773V9.75391C8.47268 8.90429 9.52737 8.9008 9.52737 9.75391V18.7773ZM12.6914 18.7773C12.6914 19.627 11.6367 19.6304 11.6367 18.7773V9.75391C11.6367 9.39765 11.8726 9.10938 12.1641 9.10938C12.4556 9.10938 12.6914 9.39765 12.6914 9.75391V18.7773Z" fill="#3F3F3F"/>
</g>
</g>
</g>
</svg>
