<svg width="79" height="79" viewBox="0 0 79 79" fill="none" xmlns="http://www.w3.org/2000/svg">
<g id="fluent:warning-16-regular">
<path id="Vector" d="M43.2031 50.6091C43.2031 51.5912 42.8129 52.5331 42.1185 53.2276C41.424 53.922 40.4821 54.3122 39.4999 54.3122C38.5178 54.3122 37.5759 53.922 36.8814 53.2276C36.187 52.5331 35.7968 51.5912 35.7968 50.6091C35.7968 49.6269 36.187 48.685 36.8814 47.9906C37.5759 47.2961 38.5178 46.9059 39.4999 46.9059C40.4821 46.9059 41.424 47.2961 42.1185 47.9906C42.8129 48.685 43.2031 49.6269 43.2031 50.6091ZM37.0312 39.4997C37.0312 40.1544 37.2913 40.7824 37.7543 41.2454C38.2173 41.7083 38.8452 41.9684 39.4999 41.9684C40.1547 41.9684 40.7826 41.7083 41.2456 41.2454C41.7086 40.7824 41.9687 40.1544 41.9687 39.4997V27.1559C41.9687 26.5012 41.7086 25.8732 41.2456 25.4103C40.7826 24.9473 40.1547 24.6872 39.4999 24.6872C38.8452 24.6872 38.2173 24.9473 37.7543 25.4103C37.2913 25.8732 37.0312 26.5012 37.0312 27.1559V39.4997ZM34.1131 13.0199C34.6489 12.0618 35.4305 11.2639 36.3774 10.7085C37.3243 10.1531 38.4022 9.86035 39.4999 9.86035C40.5977 9.86035 41.6756 10.1531 42.6225 10.7085C43.5693 11.2639 44.351 12.0618 44.8868 13.0199L68.3399 54.9985C68.8648 55.9374 69.1353 56.9973 69.1244 58.073C69.1135 59.1486 68.8216 60.2028 68.2777 61.1309C67.7338 62.059 66.9568 62.8288 66.0237 63.364C65.0905 63.8993 64.0337 64.1813 62.958 64.1822H16.0271C14.9509 64.1822 13.8935 63.9008 12.9597 63.3659C12.0259 62.831 11.2482 62.0612 10.7037 61.133C10.1592 60.2048 9.86693 59.1503 9.8558 58.0742C9.84467 56.9981 10.1151 55.9378 10.6403 54.9985L34.1131 13.0199ZM40.5763 15.4294C40.4694 15.237 40.313 15.0768 40.1233 14.9652C39.9336 14.8536 39.7175 14.7948 39.4975 14.7948C39.2774 14.7948 39.0613 14.8536 38.8717 14.9652C38.682 15.0768 38.5256 15.237 38.4186 15.4294L14.9606 57.408C14.8556 57.5958 14.8015 57.8078 14.8037 58.0229C14.8059 58.238 14.8642 58.4489 14.973 58.6345C15.0818 58.8201 15.2372 58.9741 15.4238 59.0811C15.6104 59.1881 15.8218 59.2446 16.0369 59.2447H62.958C63.1732 59.2446 63.3845 59.1881 63.5711 59.0811C63.7578 58.9741 63.9132 58.8201 64.0219 58.6345C64.1307 58.4489 64.1891 58.238 64.1913 58.0229C64.1935 57.8078 64.1394 57.5958 64.0344 57.408L40.5763 15.4294Z" fill="#D9D9D9"/>
</g>
</svg>
