<svg width="264" height="41" viewBox="0 0 264 41" fill="none" xmlns="http://www.w3.org/2000/svg">
<path d="M8.064 28.048C6.96 28.048 6 28.048 5.184 28.048C4.384 28.048 3.712 28.04 3.168 28.024C2.64 28.024 2.208 28.016 1.872 28V18.064C1.872 17.6 1.968 17.304 2.16 17.176C2.368 17.048 2.648 16.976 3 16.96C3.384 16.96 3.744 16.96 4.08 16.96C4.416 16.944 4.728 16.936 5.016 16.936C5.304 16.92 5.592 16.912 5.88 16.912C6.168 16.912 6.472 16.912 6.792 16.912C7.16 16.912 7.536 16.92 7.92 16.936C8.304 16.936 8.672 16.944 9.024 16.96C9.376 16.96 9.656 16.968 9.864 16.984C10.76 17.048 11.408 17.304 11.808 17.752C12.224 18.184 12.432 18.816 12.432 19.648C12.432 20.272 12.328 20.776 12.12 21.16C11.928 21.528 11.68 21.792 11.376 21.952C11.072 22.112 10.776 22.208 10.488 22.24C10.776 22.24 11.056 22.272 11.328 22.336C11.616 22.384 11.872 22.504 12.096 22.696C12.336 22.872 12.528 23.144 12.672 23.512C12.816 23.864 12.888 24.344 12.888 24.952C12.888 25.688 12.752 26.272 12.48 26.704C12.208 27.12 11.848 27.424 11.4 27.616C10.952 27.808 10.44 27.928 9.864 27.976C9.288 28.024 8.688 28.048 8.064 28.048ZM7.584 27.088C8.016 27.088 8.432 27.072 8.832 27.04C9.248 27.008 9.616 26.928 9.936 26.8C10.272 26.672 10.536 26.456 10.728 26.152C10.92 25.848 11.016 25.424 11.016 24.88C11.016 24.096 10.84 23.56 10.488 23.272C10.152 22.968 9.48 22.816 8.472 22.816H4.728C4.52 22.816 4.384 22.736 4.32 22.576C4.256 22.416 4.224 22.176 4.224 21.856H8.4C8.784 21.856 9.136 21.808 9.456 21.712C9.792 21.616 10.064 21.416 10.272 21.112C10.48 20.792 10.584 20.328 10.584 19.72C10.584 19.16 10.456 18.728 10.2 18.424C9.944 18.104 9.528 17.92 8.952 17.872C8.632 17.84 8.28 17.824 7.896 17.824C7.512 17.808 7.136 17.8 6.768 17.8C6.288 17.8 5.832 17.8 5.4 17.8C4.984 17.8 4.632 17.808 4.344 17.824C4.168 17.824 4.016 17.88 3.888 17.992C3.776 18.088 3.72 18.256 3.72 18.496V27.04C3.832 27.04 3.976 27.048 4.152 27.064C4.344 27.064 4.576 27.072 4.848 27.088C5.136 27.088 5.496 27.088 5.928 27.088C6.376 27.088 6.928 27.088 7.584 27.088ZM19.7466 28.168C18.8026 28.168 18.0346 28.12 17.4426 28.024C16.8506 27.928 16.3946 27.768 16.0746 27.544C15.7706 27.304 15.5546 26.992 15.4266 26.608C15.3146 26.224 15.2586 25.752 15.2586 25.192C15.2586 24.376 15.3546 23.752 15.5466 23.32C15.7386 22.888 16.0746 22.592 16.5546 22.432C17.0346 22.272 17.6746 22.192 18.4746 22.192C18.8746 22.192 19.3066 22.208 19.7706 22.24C20.2506 22.256 20.7066 22.28 21.1386 22.312C21.5866 22.328 21.9706 22.352 22.2906 22.384C22.6266 22.416 22.8506 22.456 22.9626 22.504C22.9626 21.768 22.8986 21.184 22.7706 20.752C22.6426 20.32 22.4426 20 22.1706 19.792C21.9146 19.584 21.5866 19.448 21.1866 19.384C20.8026 19.32 20.3546 19.288 19.8426 19.288C19.3146 19.288 18.7786 19.312 18.2346 19.36C17.7066 19.392 17.2186 19.456 16.7706 19.552C16.3226 19.632 15.9786 19.744 15.7386 19.888V19.528C15.7386 19.192 15.8346 18.96 16.0266 18.832C16.2346 18.688 16.4666 18.592 16.7226 18.544C17.0266 18.464 17.4666 18.4 18.0426 18.352C18.6346 18.304 19.2506 18.288 19.8906 18.304C20.7066 18.304 21.4026 18.344 21.9786 18.424C22.5706 18.504 23.0586 18.68 23.4426 18.952C23.8266 19.208 24.1146 19.6 24.3066 20.128C24.4986 20.656 24.5946 21.376 24.5946 22.288V27.232C24.4986 27.552 24.0746 27.792 23.3226 27.952C22.5706 28.096 21.3786 28.168 19.7466 28.168ZM19.7466 27.352C20.4826 27.352 21.0666 27.328 21.4986 27.28C21.9466 27.232 22.2826 27.168 22.5066 27.088C22.7466 27.008 22.8986 26.904 22.9626 26.776V23.2C22.8186 23.152 22.5466 23.104 22.1466 23.056C21.7626 23.008 21.3546 22.968 20.9226 22.936C20.4906 22.888 20.1226 22.864 19.8186 22.864C19.1306 22.864 18.5706 22.904 18.1386 22.984C17.7226 23.064 17.4186 23.264 17.2266 23.584C17.0506 23.904 16.9626 24.4 16.9626 25.072C16.9626 25.6 17.0266 26.032 17.1546 26.368C17.2826 26.704 17.5386 26.952 17.9226 27.112C18.3226 27.272 18.9306 27.352 19.7466 27.352ZM27.8201 28C27.4521 28 27.2681 27.808 27.2681 27.424V19.12C27.7321 18.912 28.3401 18.728 29.0921 18.568C29.8601 18.408 30.7401 18.328 31.7321 18.328C32.6601 18.328 33.4121 18.392 33.9881 18.52C34.5641 18.648 35.0041 18.84 35.3081 19.096C35.6121 19.352 35.8121 19.688 35.9081 20.104C36.0201 20.504 36.0761 20.992 36.0761 21.568V27.28C36.0761 27.456 36.0521 27.6 36.0041 27.712C35.9721 27.824 35.9001 27.904 35.7881 27.952C35.6921 27.984 35.5401 28 35.3321 28H34.3961V21.232C34.3961 20.592 34.1881 20.12 33.7721 19.816C33.3561 19.512 32.6761 19.36 31.7321 19.36C31.4281 19.36 31.0921 19.384 30.7241 19.432C30.3721 19.48 30.0361 19.552 29.7161 19.648C29.3961 19.728 29.1321 19.84 28.9241 19.984V28H27.8201ZM43.6468 28.144C42.3988 28.144 41.3908 28.016 40.6228 27.76C39.8548 27.504 39.2948 27.032 38.9428 26.344C38.6068 25.64 38.4388 24.616 38.4388 23.272C38.4388 21.912 38.6068 20.872 38.9428 20.152C39.2948 19.432 39.8548 18.944 40.6228 18.688C41.3908 18.416 42.3988 18.28 43.6468 18.28C44.0628 18.28 44.4468 18.296 44.7988 18.328C45.1668 18.36 45.5828 18.416 46.0468 18.496C46.3028 18.528 46.5108 18.592 46.6708 18.688C46.8308 18.768 46.9428 18.888 47.0068 19.048C47.0708 19.192 47.1028 19.408 47.1028 19.696C46.9268 19.6 46.6468 19.52 46.2628 19.456C45.8948 19.392 45.5028 19.344 45.0868 19.312C44.6708 19.264 44.3028 19.24 43.9828 19.24C43.0228 19.24 42.2628 19.368 41.7028 19.624C41.1428 19.864 40.7428 20.272 40.5028 20.848C40.2788 21.408 40.1668 22.184 40.1668 23.176C40.1668 24.168 40.2788 24.96 40.5028 25.552C40.7268 26.128 41.1188 26.536 41.6788 26.776C42.2388 27.016 43.0068 27.136 43.9828 27.136C44.4308 27.136 44.8548 27.12 45.2548 27.088C45.6548 27.04 46.0148 26.984 46.3348 26.92C46.6708 26.84 46.9268 26.752 47.1028 26.656V27.184C47.1028 27.424 46.9508 27.616 46.6468 27.76C46.3588 27.888 45.9588 27.984 45.4468 28.048C44.9348 28.112 44.3348 28.144 43.6468 28.144ZM53.3325 28.168C52.3885 28.168 51.6205 28.12 51.0285 28.024C50.4365 27.928 49.9805 27.768 49.6605 27.544C49.3565 27.304 49.1405 26.992 49.0125 26.608C48.9005 26.224 48.8445 25.752 48.8445 25.192C48.8445 24.376 48.9405 23.752 49.1325 23.32C49.3245 22.888 49.6605 22.592 50.1405 22.432C50.6205 22.272 51.2605 22.192 52.0605 22.192C52.4605 22.192 52.8925 22.208 53.3565 22.24C53.8365 22.256 54.2925 22.28 54.7245 22.312C55.1725 22.328 55.5565 22.352 55.8765 22.384C56.2125 22.416 56.4365 22.456 56.5485 22.504C56.5485 21.768 56.4845 21.184 56.3565 20.752C56.2285 20.32 56.0285 20 55.7565 19.792C55.5005 19.584 55.1725 19.448 54.7725 19.384C54.3885 19.32 53.9405 19.288 53.4285 19.288C52.9005 19.288 52.3645 19.312 51.8205 19.36C51.2925 19.392 50.8045 19.456 50.3565 19.552C49.9085 19.632 49.5645 19.744 49.3245 19.888V19.528C49.3245 19.192 49.4205 18.96 49.6125 18.832C49.8205 18.688 50.0525 18.592 50.3085 18.544C50.6125 18.464 51.0525 18.4 51.6285 18.352C52.2205 18.304 52.8365 18.288 53.4765 18.304C54.2925 18.304 54.9885 18.344 55.5645 18.424C56.1565 18.504 56.6445 18.68 57.0285 18.952C57.4125 19.208 57.7005 19.6 57.8925 20.128C58.0845 20.656 58.1805 21.376 58.1805 22.288V27.232C58.0845 27.552 57.6605 27.792 56.9085 27.952C56.1565 28.096 54.9645 28.168 53.3325 28.168ZM53.3325 27.352C54.0685 27.352 54.6525 27.328 55.0845 27.28C55.5325 27.232 55.8685 27.168 56.0925 27.088C56.3325 27.008 56.4845 26.904 56.5485 26.776V23.2C56.4045 23.152 56.1325 23.104 55.7325 23.056C55.3485 23.008 54.9405 22.968 54.5085 22.936C54.0765 22.888 53.7085 22.864 53.4045 22.864C52.7165 22.864 52.1565 22.904 51.7245 22.984C51.3085 23.064 51.0045 23.264 50.8125 23.584C50.6365 23.904 50.5485 24.4 50.5485 25.072C50.5485 25.6 50.6125 26.032 50.7405 26.368C50.8685 26.704 51.1245 26.952 51.5085 27.112C51.9085 27.272 52.5165 27.352 53.3325 27.352ZM64.2141 28.096C63.9421 28.096 63.5981 28.088 63.1821 28.072C62.7821 28.056 62.3661 28.024 61.9341 27.976C61.5181 27.912 61.1421 27.824 60.8061 27.712C60.6461 27.648 60.5181 27.584 60.4221 27.52C60.3261 27.456 60.2541 27.344 60.2061 27.184C60.1741 27.024 60.1581 26.784 60.1581 26.464C60.5101 26.64 60.9261 26.784 61.4061 26.896C61.8861 26.992 62.3661 27.056 62.8461 27.088C63.3261 27.12 63.7261 27.136 64.0461 27.136C64.5261 27.136 64.9901 27.12 65.4381 27.088C65.9021 27.04 66.3181 26.952 66.6861 26.824C67.0541 26.68 67.3421 26.472 67.5501 26.2C67.7741 25.928 67.8861 25.568 67.8861 25.12C67.8861 24.464 67.7181 24.048 67.3821 23.872C67.0461 23.68 66.5901 23.584 66.0141 23.584H63.5901C62.9981 23.584 62.4381 23.552 61.9101 23.488C61.3981 23.408 60.9741 23.208 60.6381 22.888C60.3181 22.552 60.1581 21.992 60.1581 21.208C60.1581 20.36 60.3661 19.728 60.7821 19.312C61.1981 18.896 61.7821 18.624 62.5341 18.496C63.3021 18.368 64.1901 18.304 65.1981 18.304C65.5661 18.304 66.0061 18.312 66.5181 18.328C67.0301 18.344 67.5181 18.392 67.9821 18.472C68.3021 18.52 68.5661 18.584 68.7741 18.664C68.9981 18.728 69.1581 18.824 69.2541 18.952C69.3661 19.08 69.4221 19.264 69.4221 19.504V19.984C69.2781 19.824 69.0381 19.696 68.7021 19.6C68.3661 19.504 67.9741 19.432 67.5261 19.384C67.0941 19.336 66.6461 19.312 66.1821 19.312C65.7181 19.296 65.2861 19.288 64.8861 19.288C64.3741 19.288 63.8781 19.32 63.3981 19.384C62.9181 19.448 62.5261 19.608 62.2221 19.864C61.9341 20.104 61.7901 20.52 61.7901 21.112C61.7901 21.56 61.8861 21.888 62.0781 22.096C62.2701 22.304 62.5261 22.44 62.8461 22.504C63.1821 22.552 63.5581 22.576 63.9741 22.576H66.4461C67.0541 22.576 67.5901 22.632 68.0541 22.744C68.5341 22.84 68.9021 23.072 69.1581 23.44C69.4301 23.792 69.5661 24.352 69.5661 25.12C69.5661 25.968 69.3341 26.608 68.8701 27.04C68.4061 27.472 67.7661 27.76 66.9501 27.904C66.1501 28.032 65.2381 28.096 64.2141 28.096ZM75.0188 28.096C74.7468 28.096 74.4028 28.088 73.9868 28.072C73.5868 28.056 73.1708 28.024 72.7388 27.976C72.3228 27.912 71.9468 27.824 71.6108 27.712C71.4508 27.648 71.3228 27.584 71.2268 27.52C71.1308 27.456 71.0588 27.344 71.0107 27.184C70.9788 27.024 70.9628 26.784 70.9628 26.464C71.3148 26.64 71.7308 26.784 72.2108 26.896C72.6908 26.992 73.1708 27.056 73.6508 27.088C74.1308 27.12 74.5308 27.136 74.8508 27.136C75.3308 27.136 75.7948 27.12 76.2428 27.088C76.7068 27.04 77.1228 26.952 77.4908 26.824C77.8588 26.68 78.1468 26.472 78.3548 26.2C78.5788 25.928 78.6908 25.568 78.6908 25.12C78.6908 24.464 78.5228 24.048 78.1868 23.872C77.8508 23.68 77.3948 23.584 76.8188 23.584H74.3948C73.8028 23.584 73.2428 23.552 72.7148 23.488C72.2028 23.408 71.7788 23.208 71.4428 22.888C71.1228 22.552 70.9628 21.992 70.9628 21.208C70.9628 20.36 71.1708 19.728 71.5868 19.312C72.0028 18.896 72.5868 18.624 73.3388 18.496C74.1068 18.368 74.9948 18.304 76.0028 18.304C76.3708 18.304 76.8108 18.312 77.3228 18.328C77.8348 18.344 78.3228 18.392 78.7868 18.472C79.1068 18.52 79.3708 18.584 79.5788 18.664C79.8028 18.728 79.9628 18.824 80.0588 18.952C80.1708 19.08 80.2268 19.264 80.2268 19.504V19.984C80.0828 19.824 79.8428 19.696 79.5068 19.6C79.1708 19.504 78.7788 19.432 78.3308 19.384C77.8988 19.336 77.4508 19.312 76.9868 19.312C76.5228 19.296 76.0908 19.288 75.6908 19.288C75.1788 19.288 74.6828 19.32 74.2028 19.384C73.7228 19.448 73.3308 19.608 73.0268 19.864C72.7388 20.104 72.5948 20.52 72.5948 21.112C72.5948 21.56 72.6908 21.888 72.8828 22.096C73.0748 22.304 73.3308 22.44 73.6508 22.504C73.9868 22.552 74.3628 22.576 74.7788 22.576H77.2508C77.8588 22.576 78.3948 22.632 78.8588 22.744C79.3388 22.84 79.7068 23.072 79.9628 23.44C80.2348 23.792 80.3708 24.352 80.3708 25.12C80.3708 25.968 80.1388 26.608 79.6748 27.04C79.2108 27.472 78.5708 27.76 77.7548 27.904C76.9548 28.032 76.0428 28.096 75.0188 28.096ZM83.9274 18.424V24.928C83.9274 25.728 84.1514 26.296 84.5994 26.632C85.0634 26.952 85.7674 27.112 86.7114 27.112C87.7194 27.112 88.4394 26.944 88.8714 26.608C89.3194 26.256 89.5434 25.696 89.5434 24.928V18.424C89.5594 18.424 89.6074 18.424 89.6874 18.424C89.7834 18.424 89.8794 18.424 89.9754 18.424C90.0874 18.424 90.1914 18.424 90.2874 18.424C90.3834 18.424 90.4474 18.424 90.4794 18.424C90.6714 18.424 90.8234 18.44 90.9354 18.472C91.0474 18.488 91.1194 18.544 91.1514 18.64C91.1994 18.736 91.2234 18.896 91.2234 19.12V24.616C91.2234 25.416 91.1034 26.08 90.8634 26.608C90.6234 27.12 90.1754 27.504 89.5194 27.76C88.8634 28 87.9194 28.12 86.6874 28.12C85.5674 28.12 84.6794 28.016 84.0234 27.808C83.3834 27.6 82.9274 27.248 82.6554 26.752C82.3834 26.256 82.2474 25.584 82.2474 24.736V19.12C82.2474 18.848 82.2874 18.664 82.3674 18.568C82.4634 18.472 82.6394 18.424 82.8954 18.424C83.0714 18.424 83.2394 18.424 83.3994 18.424C83.5754 18.424 83.7514 18.424 83.9274 18.424ZM95.5575 28H94.5015C94.2935 28 94.1335 27.952 94.0215 27.856C93.9255 27.744 93.8775 27.544 93.8775 27.256V18.904C94.2295 18.792 94.7095 18.672 95.3175 18.544C95.9415 18.416 96.7095 18.352 97.6215 18.352C98.4855 18.352 99.1655 18.416 99.6615 18.544C100.174 18.656 100.542 18.816 100.766 19.024C101.006 19.232 101.158 19.488 101.222 19.792C101.302 20.08 101.342 20.408 101.342 20.776H99.7335L99.7095 20.44C99.6935 20.072 99.5735 19.808 99.3495 19.648C99.1255 19.472 98.8615 19.368 98.5575 19.336C98.2535 19.288 97.9495 19.264 97.6455 19.264C97.1815 19.264 96.7655 19.304 96.3975 19.384C96.0455 19.464 95.7655 19.568 95.5575 19.696V28ZM107.789 28.144C106.861 28.144 106.077 28.08 105.437 27.952C104.813 27.824 104.309 27.584 103.925 27.232C103.557 26.88 103.285 26.392 103.109 25.768C102.949 25.128 102.869 24.304 102.869 23.296C102.869 22.144 103.013 21.2 103.301 20.464C103.589 19.728 104.101 19.184 104.837 18.832C105.573 18.48 106.605 18.304 107.933 18.304C108.957 18.304 109.773 18.44 110.381 18.712C111.005 18.984 111.453 19.4 111.725 19.96C112.013 20.52 112.157 21.248 112.157 22.144V23.512H105.389C105.389 23.32 105.437 23.16 105.533 23.032C105.629 22.888 105.805 22.816 106.061 22.816H110.645L110.621 22.12C110.605 21.128 110.389 20.408 109.973 19.96C109.573 19.512 108.869 19.288 107.861 19.288C107.013 19.288 106.349 19.416 105.869 19.672C105.389 19.928 105.053 20.344 104.861 20.92C104.669 21.496 104.573 22.28 104.573 23.272C104.573 24.328 104.677 25.136 104.885 25.696C105.109 26.24 105.477 26.616 105.989 26.824C106.501 27.016 107.197 27.112 108.077 27.112C108.381 27.112 108.725 27.104 109.109 27.088C109.509 27.056 109.909 27.024 110.309 26.992C110.709 26.96 111.061 26.92 111.365 26.872C111.685 26.808 111.909 26.744 112.037 26.68V26.968C112.037 27.128 111.989 27.28 111.893 27.424C111.813 27.568 111.637 27.688 111.365 27.784C111.013 27.928 110.533 28.024 109.925 28.072C109.333 28.12 108.621 28.144 107.789 28.144Z" fill="white"/>
<g filter="url(#filter0_b_2_18)">
<path d="M120.324 28L123.516 18.568C123.708 18.024 123.972 17.608 124.308 17.32C124.644 17.016 125.22 16.864 126.036 16.864C126.772 16.864 127.316 17 127.668 17.272C128.02 17.544 128.3 17.976 128.508 18.568L131.772 28H129.78L128.748 24.952H122.748L121.764 28H120.324ZM123.06 24.112H128.412L126.828 19.288C126.748 19.048 126.644 18.84 126.516 18.664C126.388 18.472 126.132 18.376 125.748 18.376C125.316 18.376 125.028 18.472 124.884 18.664C124.756 18.856 124.66 19.064 124.596 19.288L123.06 24.112ZM133.3 23.152C133.3 21.856 133.468 20.864 133.804 20.176C134.156 19.488 134.66 19.016 135.316 18.76C135.972 18.504 136.772 18.376 137.716 18.376C137.988 18.376 138.308 18.384 138.676 18.4C139.06 18.416 139.444 18.448 139.828 18.496C140.212 18.528 140.548 18.568 140.836 18.616C141.124 18.664 141.324 18.712 141.436 18.76L140.932 19V15.88H142.588L142.564 23.176C142.564 24.264 142.492 25.136 142.348 25.792C142.204 26.432 141.956 26.912 141.604 27.232C141.268 27.552 140.788 27.768 140.164 27.88C139.556 27.992 138.788 28.048 137.86 28.048C136.996 28.048 136.268 27.992 135.676 27.88C135.084 27.768 134.612 27.544 134.26 27.208C133.924 26.872 133.676 26.384 133.516 25.744C133.372 25.104 133.3 24.24 133.3 23.152ZM137.716 27.088C138.436 27.088 139.004 27.048 139.42 26.968C139.852 26.872 140.18 26.696 140.404 26.44C140.628 26.168 140.772 25.792 140.836 25.312C140.9 24.832 140.932 24.2 140.932 23.416V19.528C140.756 19.512 140.5 19.496 140.164 19.48C139.844 19.464 139.508 19.448 139.156 19.432C138.804 19.416 138.492 19.408 138.22 19.408C137.452 19.408 136.828 19.512 136.348 19.72C135.868 19.912 135.516 20.288 135.292 20.848C135.084 21.392 134.98 22.184 134.98 23.224C134.98 24.328 135.06 25.16 135.22 25.72C135.396 26.264 135.684 26.632 136.084 26.824C136.484 27 137.028 27.088 137.716 27.088ZM145.935 28C145.647 28 145.455 27.96 145.359 27.88C145.263 27.784 145.215 27.592 145.215 27.304V19.12C145.343 19.072 145.527 19.008 145.767 18.928C146.007 18.848 146.295 18.768 146.631 18.688C146.967 18.592 147.351 18.52 147.783 18.472C148.231 18.408 148.719 18.376 149.247 18.376C149.791 18.376 150.263 18.424 150.663 18.52C151.063 18.6 151.407 18.752 151.695 18.976C151.983 19.184 152.223 19.472 152.415 19.84H152.079C152.207 19.568 152.391 19.336 152.631 19.144C152.871 18.936 153.151 18.776 153.471 18.664C153.791 18.552 154.119 18.472 154.455 18.424C154.807 18.376 155.143 18.352 155.463 18.352C156.359 18.352 157.063 18.44 157.575 18.616C158.087 18.792 158.447 19.088 158.655 19.504C158.879 19.92 158.991 20.472 158.991 21.16V27.352C158.991 27.608 158.943 27.784 158.847 27.88C158.751 27.96 158.575 28 158.319 28H157.311C157.311 26.848 157.311 25.704 157.311 24.568C157.311 23.416 157.311 22.264 157.311 21.112C157.311 20.408 157.135 19.928 156.783 19.672C156.447 19.4 155.943 19.264 155.271 19.264C154.951 19.264 154.607 19.304 154.239 19.384C153.887 19.464 153.583 19.584 153.327 19.744C153.071 19.904 152.943 20.088 152.943 20.296V28H151.263V20.488C151.263 20.152 151.063 19.872 150.663 19.648C150.279 19.408 149.783 19.288 149.175 19.288C148.807 19.288 148.455 19.32 148.119 19.384C147.783 19.432 147.503 19.512 147.279 19.624C147.055 19.72 146.927 19.856 146.895 20.032V28H145.935ZM163.658 28.096C162.906 28.096 162.402 27.896 162.146 27.496C161.89 27.096 161.762 26.512 161.762 25.744V18.424H163.442V25.648C163.442 26.304 163.514 26.744 163.658 26.968C163.802 27.192 164.058 27.304 164.426 27.304C164.554 27.304 164.714 27.288 164.906 27.256C165.098 27.224 165.218 27.2 165.266 27.184V27.928C165.218 27.944 165.122 27.968 164.978 28C164.85 28.016 164.674 28.032 164.45 28.048C164.242 28.08 163.978 28.096 163.658 28.096ZM162.626 17.032C162.354 17.032 162.138 16.992 161.978 16.912C161.818 16.832 161.738 16.664 161.738 16.408C161.738 16.152 161.81 15.984 161.954 15.904C162.114 15.824 162.33 15.784 162.602 15.784C162.906 15.784 163.13 15.824 163.274 15.904C163.418 15.984 163.482 16.152 163.466 16.408C163.466 16.664 163.394 16.832 163.25 16.912C163.106 16.992 162.898 17.032 162.626 17.032ZM167.447 28C167.079 28 166.895 27.808 166.895 27.424V19.12C167.359 18.912 167.967 18.728 168.719 18.568C169.487 18.408 170.367 18.328 171.359 18.328C172.287 18.328 173.039 18.392 173.615 18.52C174.191 18.648 174.631 18.84 174.935 19.096C175.239 19.352 175.439 19.688 175.535 20.104C175.647 20.504 175.703 20.992 175.703 21.568V27.28C175.703 27.456 175.679 27.6 175.631 27.712C175.599 27.824 175.527 27.904 175.415 27.952C175.319 27.984 175.167 28 174.959 28H174.023V21.232C174.023 20.592 173.815 20.12 173.399 19.816C172.983 19.512 172.303 19.36 171.359 19.36C171.055 19.36 170.719 19.384 170.351 19.432C169.999 19.48 169.663 19.552 169.343 19.648C169.023 19.728 168.759 19.84 168.551 19.984V28H167.447ZM185.045 28C185.045 26.384 185.045 24.768 185.045 23.152C185.045 21.536 185.045 19.928 185.045 18.328C185.045 17.784 185.141 17.424 185.333 17.248C185.541 17.072 185.877 16.976 186.341 16.96C186.965 16.944 187.653 16.936 188.405 16.936C189.173 16.936 189.933 16.936 190.685 16.936C191.453 16.936 192.125 16.952 192.701 16.984C193.357 17.016 193.909 17.152 194.357 17.392C194.821 17.616 195.165 17.96 195.389 18.424C195.629 18.872 195.749 19.448 195.749 20.152C195.749 20.952 195.605 21.616 195.317 22.144C195.045 22.672 194.653 23.056 194.141 23.296C193.645 23.536 193.045 23.656 192.341 23.656C191.541 23.656 190.717 23.656 189.869 23.656C189.037 23.656 188.205 23.656 187.373 23.656C187.373 23.384 187.373 23.176 187.373 23.032C187.389 22.888 187.421 22.784 187.469 22.72C187.533 22.656 187.637 22.624 187.781 22.624C188.037 22.624 188.389 22.624 188.837 22.624C189.301 22.624 189.789 22.624 190.301 22.624C190.813 22.624 191.277 22.624 191.693 22.624C192.077 22.624 192.429 22.552 192.749 22.408C193.085 22.264 193.349 22.008 193.541 21.64C193.749 21.272 193.853 20.768 193.853 20.128C193.853 19.504 193.725 19.016 193.469 18.664C193.213 18.296 192.789 18.096 192.197 18.064C191.701 18.016 191.149 17.992 190.541 17.992C189.933 17.976 189.357 17.976 188.813 17.992C188.285 17.992 187.837 18 187.469 18.016C187.389 18.016 187.269 18.056 187.109 18.136C186.965 18.2 186.893 18.352 186.893 18.592C186.893 20.16 186.893 21.728 186.893 23.296C186.893 24.848 186.893 26.416 186.893 28H185.045ZM202.459 28.144C201.723 28.144 201.059 28.088 200.467 27.976C199.891 27.864 199.387 27.64 198.955 27.304C198.539 26.968 198.219 26.472 197.995 25.816C197.771 25.16 197.659 24.296 197.659 23.224C197.659 22.152 197.771 21.288 197.995 20.632C198.219 19.976 198.539 19.48 198.955 19.144C199.387 18.808 199.891 18.584 200.467 18.472C201.059 18.36 201.723 18.304 202.459 18.304C203.179 18.304 203.827 18.36 204.403 18.472C204.995 18.584 205.499 18.808 205.915 19.144C206.331 19.48 206.651 19.976 206.875 20.632C207.099 21.288 207.211 22.152 207.211 23.224C207.211 24.312 207.099 25.184 206.875 25.84C206.651 26.496 206.331 26.992 205.915 27.328C205.499 27.648 204.995 27.864 204.403 27.976C203.827 28.088 203.179 28.144 202.459 28.144ZM202.459 27.208C203.099 27.208 203.643 27.112 204.091 26.92C204.555 26.728 204.907 26.352 205.147 25.792C205.387 25.232 205.507 24.376 205.507 23.224C205.507 22.072 205.387 21.216 205.147 20.656C204.907 20.096 204.555 19.72 204.091 19.528C203.643 19.336 203.099 19.24 202.459 19.24C201.819 19.24 201.267 19.336 200.803 19.528C200.355 19.72 200.003 20.096 199.747 20.656C199.507 21.216 199.387 22.072 199.387 23.224C199.387 24.376 199.507 25.232 199.747 25.792C200.003 26.352 200.355 26.728 200.803 26.92C201.267 27.112 201.819 27.208 202.459 27.208ZM211.395 28H210.339C210.131 28 209.971 27.952 209.859 27.856C209.763 27.744 209.715 27.544 209.715 27.256V18.904C210.067 18.792 210.547 18.672 211.155 18.544C211.779 18.416 212.547 18.352 213.459 18.352C214.323 18.352 215.003 18.416 215.499 18.544C216.011 18.656 216.379 18.816 216.603 19.024C216.843 19.232 216.995 19.488 217.059 19.792C217.139 20.08 217.179 20.408 217.179 20.776H215.571L215.547 20.44C215.531 20.072 215.411 19.808 215.187 19.648C214.963 19.472 214.699 19.368 214.395 19.336C214.091 19.288 213.787 19.264 213.483 19.264C213.019 19.264 212.603 19.304 212.235 19.384C211.883 19.464 211.603 19.568 211.395 19.696V28ZM221.49 28.072C220.946 28.072 220.522 28.008 220.218 27.88C219.914 27.736 219.69 27.496 219.546 27.16C219.402 26.824 219.33 26.368 219.33 25.792V19.36H218.418V18.424H219.33V16.696C219.33 16.456 219.346 16.28 219.378 16.168C219.426 16.04 219.498 15.96 219.594 15.928C219.69 15.896 219.826 15.88 220.002 15.88H221.034C221.034 15.912 221.026 15.984 221.01 16.096C221.01 16.192 221.01 16.336 221.01 16.528V18.424H223.242V19.36H221.01V25.6C221.01 26.224 221.074 26.664 221.202 26.92C221.33 27.176 221.618 27.304 222.066 27.304C222.242 27.304 222.426 27.288 222.618 27.256C222.81 27.224 222.946 27.192 223.026 27.16V27.904C222.93 27.92 222.746 27.952 222.474 28C222.202 28.048 221.874 28.072 221.49 28.072ZM229.264 28.168C228.32 28.168 227.552 28.12 226.96 28.024C226.368 27.928 225.912 27.768 225.592 27.544C225.288 27.304 225.072 26.992 224.944 26.608C224.832 26.224 224.776 25.752 224.776 25.192C224.776 24.376 224.872 23.752 225.064 23.32C225.256 22.888 225.592 22.592 226.072 22.432C226.552 22.272 227.192 22.192 227.992 22.192C228.392 22.192 228.824 22.208 229.288 22.24C229.768 22.256 230.224 22.28 230.656 22.312C231.104 22.328 231.488 22.352 231.808 22.384C232.144 22.416 232.368 22.456 232.48 22.504C232.48 21.768 232.416 21.184 232.288 20.752C232.16 20.32 231.96 20 231.688 19.792C231.432 19.584 231.104 19.448 230.704 19.384C230.32 19.32 229.872 19.288 229.36 19.288C228.832 19.288 228.296 19.312 227.752 19.36C227.224 19.392 226.736 19.456 226.288 19.552C225.84 19.632 225.496 19.744 225.256 19.888V19.528C225.256 19.192 225.352 18.96 225.544 18.832C225.752 18.688 225.984 18.592 226.24 18.544C226.544 18.464 226.984 18.4 227.56 18.352C228.152 18.304 228.768 18.288 229.408 18.304C230.224 18.304 230.92 18.344 231.496 18.424C232.088 18.504 232.576 18.68 232.96 18.952C233.344 19.208 233.632 19.6 233.824 20.128C234.016 20.656 234.112 21.376 234.112 22.288V27.232C234.016 27.552 233.592 27.792 232.84 27.952C232.088 28.096 230.896 28.168 229.264 28.168ZM229.264 27.352C230 27.352 230.584 27.328 231.016 27.28C231.464 27.232 231.8 27.168 232.024 27.088C232.264 27.008 232.416 26.904 232.48 26.776V23.2C232.336 23.152 232.064 23.104 231.664 23.056C231.28 23.008 230.872 22.968 230.44 22.936C230.008 22.888 229.64 22.864 229.336 22.864C228.648 22.864 228.088 22.904 227.656 22.984C227.24 23.064 226.936 23.264 226.744 23.584C226.568 23.904 226.48 24.4 226.48 25.072C226.48 25.6 226.544 26.032 226.672 26.368C226.8 26.704 227.056 26.952 227.44 27.112C227.84 27.272 228.448 27.352 229.264 27.352ZM238.801 28.096C238.065 28.096 237.537 27.936 237.217 27.616C236.897 27.28 236.737 26.688 236.737 25.84V16.672C236.737 16.48 236.753 16.328 236.785 16.216C236.817 16.088 236.881 16 236.977 15.952C237.089 15.904 237.241 15.88 237.433 15.88H238.441C238.441 15.896 238.433 16 238.417 16.192C238.401 16.384 238.393 16.624 238.393 16.912V25.576C238.393 26.184 238.457 26.624 238.585 26.896C238.729 27.168 239.001 27.304 239.401 27.304C239.513 27.304 239.665 27.288 239.857 27.256C240.049 27.224 240.177 27.2 240.241 27.184V27.928C240.145 27.944 239.985 27.976 239.761 28.024C239.553 28.072 239.233 28.096 238.801 28.096Z" fill="white"/>
</g>
<path d="M258.645 5.00355L259.362 5.18282L263.306 1.23878C261.513 -0.0161425 259.899 -0.195425 258.645 0.163132C257.121 0.598332 254.88 2.49369 253.625 4.46572C251.952 7.2146 248.318 13.035 247.171 14.3258C246.024 15.6166 245.378 15.9393 245.02 15.5807L243.944 14.5051L240 18.4491C241.195 19.5248 243.873 20.503 245.737 19.704C246.992 19.1662 249.322 17.3735 250.936 15.0429C252.669 12.294 256.314 6.58116 257.031 5.72064C257.748 4.86013 258.465 5.00353 258.645 5.00355Z" fill="white"/>
<path d="M246.104 4.5824C245.784 4.58239 245.268 6.4349 245.029 7.27151C242.83 6.69783 242.44 5.47877 242.519 4.94095C242.698 3.86531 243.559 1.46303 245.567 0.459088C247.897 -0.706211 249.449 0.67622 249.69 0.996911C250.228 1.71402 252.02 4.91534 252.917 7.09225C253.138 7.63008 255.964 14.4425 256.323 14.9803C256.682 15.5181 256.913 15.5429 257.219 15.3389C257.641 15.0576 258.116 13.7254 258.295 13.0083L260.088 14.2632C261.163 15.1596 260.32 16.7731 259.909 17.3109C259.132 18.3268 257.291 20 255.427 20C253.562 20 252.02 17.8487 251.483 16.7731L246.642 5.2995C246.463 4.94095 246.284 4.5824 246.104 4.5824Z" fill="#6ACF04"/>
<defs>
<filter id="filter0_b_2_18" x="116.324" y="11.784" width="127.918" height="20.384" filterUnits="userSpaceOnUse" color-interpolation-filters="sRGB">
<feFlood flood-opacity="0" result="BackgroundImageFix"/>
<feGaussianBlur in="BackgroundImageFix" stdDeviation="2"/>
<feComposite in2="SourceAlpha" operator="in" result="effect1_backgroundBlur_2_18"/>
<feBlend mode="normal" in="SourceGraphic" in2="effect1_backgroundBlur_2_18" result="shape"/>
</filter>
</defs>
</svg>
