<svg width="352" height="74" viewBox="0 0 352 74" fill="none" xmlns="http://www.w3.org/2000/svg">
<path d="M78.088 58L86.6 32.848C87.112 31.3973 87.816 30.288 88.712 29.52C89.608 28.7093 91.144 28.304 93.32 28.304C95.2827 28.304 96.7333 28.6667 97.672 29.392C98.6107 30.1173 99.3573 31.2693 99.912 32.848L108.616 58H103.304L100.552 49.872H84.552L81.928 58H78.088ZM85.384 47.632H99.656L95.432 34.768C95.2187 34.128 94.9413 33.5733 94.6 33.104C94.2587 32.592 93.576 32.336 92.552 32.336C91.4 32.336 90.632 32.592 90.248 33.104C89.9067 33.616 89.6507 34.1707 89.48 34.768L85.384 47.632ZM124.595 65.296C123.656 65.296 122.59 65.2533 121.395 65.168C120.243 65.1253 119.134 64.9973 118.067 64.784C117 64.6133 116.104 64.336 115.379 63.952C114.696 63.6107 114.355 63.1627 114.355 62.608C114.355 62.4373 114.355 62.224 114.355 61.968C114.355 61.712 114.355 61.5413 114.355 61.456C114.952 61.7547 115.806 62.032 116.915 62.288C118.067 62.544 119.283 62.736 120.563 62.864C121.843 62.992 122.952 63.056 123.891 63.056C126.366 63.056 128.286 62.6933 129.651 61.968C131.016 61.2427 131.934 60.0267 132.403 58.32C132.915 56.656 133.107 54.4373 132.979 51.664H133.939C133.512 53.1147 132.787 54.224 131.763 54.992C130.739 55.76 129.523 56.2933 128.115 56.592C126.707 56.8907 125.192 57.04 123.571 57.04C121.096 57.04 119.048 56.7627 117.427 56.208C115.806 55.6107 114.611 54.4587 113.843 52.752C113.075 51.0027 112.691 48.4427 112.691 45.072C112.691 42.3413 112.926 40.144 113.395 38.48C113.907 36.7733 114.696 35.472 115.763 34.576C116.83 33.68 118.216 33.0827 119.923 32.784C121.672 32.4427 123.784 32.272 126.259 32.272C127.198 32.272 128.243 32.3147 129.395 32.4C130.547 32.4853 131.699 32.5707 132.851 32.656C134.003 32.6987 135.006 32.7627 135.859 32.848C136.755 32.9333 137.352 33.0187 137.651 33.104C137.608 33.232 137.566 33.5947 137.523 34.192C137.48 34.7467 137.459 35.408 137.459 36.176C137.459 36.9013 137.459 37.6053 137.459 38.288V53.456C137.459 56.4427 137.011 58.7893 136.115 60.496C135.262 62.2453 133.896 63.4827 132.019 64.208C130.142 64.9333 127.667 65.296 124.595 65.296ZM124.595 54.352C126.174 54.352 127.582 54.1813 128.819 53.84C130.056 53.456 131.059 52.8587 131.827 52.048C132.595 51.1947 132.979 50.064 132.979 48.656V35.472C132.595 35.3867 131.72 35.28 130.355 35.152C128.99 34.9813 127.411 34.896 125.619 34.896C123.528 34.896 121.886 35.1733 120.691 35.728C119.496 36.24 118.622 37.2 118.067 38.608C117.555 39.9733 117.299 41.9573 117.299 44.56C117.299 47.2053 117.534 49.2533 118.003 50.704C118.472 52.112 119.24 53.072 120.307 53.584C121.374 54.096 122.803 54.352 124.595 54.352ZM157.061 58.384C154.586 58.384 152.496 58.2133 150.789 57.872C149.125 57.5307 147.781 56.8907 146.757 55.952C145.776 55.0133 145.05 53.712 144.581 52.048C144.154 50.3413 143.941 48.144 143.941 45.456C143.941 42.384 144.325 39.8667 145.093 37.904C145.861 35.9413 147.226 34.4907 149.189 33.552C151.152 32.6133 153.904 32.144 157.445 32.144C160.176 32.144 162.352 32.5067 163.973 33.232C165.637 33.9573 166.832 35.0667 167.557 36.56C168.325 38.0533 168.709 39.9947 168.709 42.384V46.032H150.661C150.661 45.52 150.789 45.0933 151.045 44.752C151.301 44.368 151.77 44.176 152.453 44.176H164.677L164.613 42.32C164.57 39.6747 163.994 37.7547 162.885 36.56C161.818 35.3653 159.941 34.768 157.253 34.768C154.992 34.768 153.221 35.1093 151.941 35.792C150.661 36.4747 149.765 37.584 149.253 39.12C148.741 40.656 148.485 42.7467 148.485 45.392C148.485 48.208 148.762 50.3627 149.317 51.856C149.914 53.3067 150.896 54.3093 152.261 54.864C153.626 55.376 155.482 55.632 157.829 55.632C158.64 55.632 159.557 55.6107 160.581 55.568C161.648 55.4827 162.714 55.3973 163.781 55.312C164.848 55.2267 165.786 55.12 166.597 54.992C167.45 54.8213 168.048 54.6507 168.389 54.48V55.248C168.389 55.6747 168.261 56.08 168.005 56.464C167.792 56.848 167.322 57.168 166.597 57.424C165.658 57.808 164.378 58.064 162.757 58.192C161.178 58.32 159.28 58.384 157.061 58.384ZM176.187 58C175.206 58 174.715 57.488 174.715 56.464V34.32C175.952 33.7653 177.574 33.2747 179.579 32.848C181.627 32.4213 183.974 32.208 186.619 32.208C189.094 32.208 191.099 32.3787 192.635 32.72C194.171 33.0613 195.344 33.5733 196.155 34.256C196.966 34.9387 197.499 35.8347 197.755 36.944C198.054 38.0107 198.203 39.312 198.203 40.848V56.08C198.203 56.5493 198.139 56.9333 198.011 57.232C197.926 57.5307 197.734 57.744 197.435 57.872C197.179 57.9573 196.774 58 196.219 58H193.723V39.952C193.723 38.2453 193.168 36.9867 192.059 36.176C190.95 35.3653 189.136 34.96 186.619 34.96C185.808 34.96 184.912 35.024 183.931 35.152C182.992 35.28 182.096 35.472 181.243 35.728C180.39 35.9413 179.686 36.24 179.131 36.624V58H176.187ZM218.392 58.384C215.064 58.384 212.376 58.0427 210.328 57.36C208.28 56.6773 206.786 55.4187 205.848 53.584C204.952 51.7067 204.504 48.976 204.504 45.392C204.504 41.7653 204.952 38.992 205.848 37.072C206.786 35.152 208.28 33.8507 210.328 33.168C212.376 32.4427 215.064 32.08 218.392 32.08C219.501 32.08 220.525 32.1227 221.464 32.208C222.445 32.2933 223.554 32.4427 224.792 32.656C225.474 32.7413 226.029 32.912 226.456 33.168C226.882 33.3813 227.181 33.7013 227.352 34.128C227.522 34.512 227.608 35.088 227.608 35.856C227.138 35.6 226.392 35.3867 225.368 35.216C224.386 35.0453 223.341 34.9173 222.232 34.832C221.122 34.704 220.141 34.64 219.288 34.64C216.728 34.64 214.701 34.9813 213.208 35.664C211.714 36.304 210.648 37.392 210.008 38.928C209.41 40.4213 209.112 42.4907 209.112 45.136C209.112 47.7813 209.41 49.8933 210.008 51.472C210.605 53.008 211.65 54.096 213.144 54.736C214.637 55.376 216.685 55.696 219.288 55.696C220.482 55.696 221.613 55.6533 222.68 55.568C223.746 55.44 224.706 55.2907 225.56 55.12C226.456 54.9067 227.138 54.672 227.608 54.416V55.824C227.608 56.464 227.202 56.976 226.392 57.36C225.624 57.7013 224.557 57.9573 223.192 58.128C221.826 58.2987 220.226 58.384 218.392 58.384ZM244.22 65.104C242.3 65.104 240.487 64.9973 238.78 64.784C237.073 64.6133 235.687 64.336 234.62 63.952C233.553 63.568 233.02 63.1413 233.02 62.672V61.072C233.703 61.456 234.599 61.776 235.708 62.032C236.86 62.288 238.076 62.48 239.356 62.608C240.636 62.7787 241.873 62.864 243.068 62.864C245.116 62.864 246.78 62.5867 248.06 62.032C249.383 61.4773 250.364 60.5813 251.004 59.344C251.687 58.1067 252.028 56.5493 252.028 54.672V51.216C251.644 52.0693 251.025 52.7947 250.172 53.392C249.319 53.9893 248.252 54.416 246.972 54.672C245.735 54.928 244.284 55.056 242.62 55.056C239.591 55.056 237.351 54.6293 235.9 53.776C234.492 52.9227 233.575 51.7067 233.148 50.128C232.764 48.5493 232.572 46.7147 232.572 44.624V34.96C232.572 34.32 232.593 33.8293 232.636 33.488C232.721 33.104 232.871 32.848 233.084 32.72C233.34 32.5493 233.745 32.464 234.3 32.464H237.116C237.116 33.5733 237.116 34.64 237.116 35.664C237.116 36.6453 237.116 37.6267 237.116 38.608C237.116 39.5467 237.116 40.5067 237.116 41.488C237.116 42.4693 237.116 43.5147 237.116 44.624C237.116 47.056 237.436 48.848 238.076 50C238.759 51.152 239.655 51.8773 240.764 52.176C241.916 52.4747 243.175 52.624 244.54 52.624C245.905 52.624 247.143 52.4533 248.252 52.112C249.361 51.728 250.257 51.0027 250.94 49.936C251.623 48.8693 251.964 47.2693 251.964 45.136V32.464H254.716C255.356 32.464 255.804 32.5707 256.06 32.784C256.359 32.9547 256.508 33.488 256.508 34.384V54.16C256.508 57.9573 255.505 60.7307 253.5 62.48C251.537 64.2293 248.444 65.104 244.22 65.104ZM264.617 58C264.617 53.6907 264.617 49.3813 264.617 45.072C264.617 40.7627 264.617 36.4747 264.617 32.208C264.617 30.7573 264.873 29.7973 265.385 29.328C265.94 28.8587 266.836 28.6027 268.073 28.56C269.737 28.5173 271.572 28.496 273.577 28.496C275.625 28.496 277.652 28.496 279.657 28.496C281.705 28.496 283.497 28.5387 285.033 28.624C286.782 28.7093 288.254 29.072 289.449 29.712C290.686 30.3093 291.604 31.2267 292.201 32.464C292.841 33.6587 293.161 35.1947 293.161 37.072C293.161 39.2053 292.777 40.976 292.009 42.384C291.284 43.792 290.238 44.816 288.873 45.456C287.55 46.096 285.95 46.416 284.073 46.416C281.94 46.416 279.742 46.416 277.481 46.416C275.262 46.416 273.044 46.416 270.825 46.416C270.825 45.6907 270.825 45.136 270.825 44.752C270.868 44.368 270.953 44.0907 271.081 43.92C271.252 43.7493 271.529 43.664 271.913 43.664C272.596 43.664 273.534 43.664 274.729 43.664C275.966 43.664 277.268 43.664 278.633 43.664C279.998 43.664 281.236 43.664 282.345 43.664C283.369 43.664 284.308 43.472 285.161 43.088C286.057 42.704 286.761 42.0213 287.273 41.04C287.828 40.0587 288.105 38.7147 288.105 37.008C288.105 35.344 287.764 34.0427 287.081 33.104C286.398 32.1227 285.268 31.5893 283.689 31.504C282.366 31.376 280.894 31.312 279.273 31.312C277.652 31.2693 276.116 31.2693 274.665 31.312C273.257 31.312 272.062 31.3333 271.081 31.376C270.868 31.376 270.548 31.4827 270.121 31.696C269.737 31.8667 269.545 32.272 269.545 32.912C269.545 37.0933 269.545 41.2747 269.545 45.456C269.545 49.5947 269.545 53.776 269.545 58H264.617ZM303.758 58H300.942C300.387 58 299.96 57.872 299.661 57.616C299.406 57.3173 299.278 56.784 299.278 56.016V33.744C300.216 33.4453 301.496 33.1253 303.118 32.784C304.782 32.4427 306.83 32.272 309.262 32.272C311.566 32.272 313.379 32.4427 314.702 32.784C316.067 33.0827 317.048 33.5093 317.646 34.064C318.286 34.6187 318.691 35.3013 318.862 36.112C319.075 36.88 319.182 37.7547 319.182 38.736H314.894L314.83 37.84C314.787 36.8587 314.467 36.1547 313.87 35.728C313.272 35.2587 312.568 34.9813 311.758 34.896C310.947 34.768 310.136 34.704 309.326 34.704C308.088 34.704 306.979 34.8107 305.998 35.024C305.059 35.2373 304.312 35.5147 303.758 35.856V58ZM336.054 58.384C334.091 58.384 332.32 58.2347 330.742 57.936C329.206 57.6373 327.862 57.04 326.71 56.144C325.6 55.248 324.747 53.9253 324.15 52.176C323.552 50.4267 323.254 48.1227 323.254 45.264C323.254 42.4053 323.552 40.1013 324.15 38.352C324.747 36.6027 325.6 35.28 326.71 34.384C327.862 33.488 329.206 32.8907 330.742 32.592C332.32 32.2933 334.091 32.144 336.054 32.144C337.974 32.144 339.702 32.2933 341.238 32.592C342.816 32.8907 344.16 33.488 345.27 34.384C346.379 35.28 347.232 36.6027 347.83 38.352C348.427 40.1013 348.726 42.4053 348.726 45.264C348.726 48.1653 348.427 50.4907 347.83 52.24C347.232 53.9893 346.379 55.312 345.27 56.208C344.16 57.0613 342.816 57.6373 341.238 57.936C339.702 58.2347 337.974 58.384 336.054 58.384ZM336.054 55.888C337.76 55.888 339.211 55.632 340.406 55.12C341.643 54.608 342.582 53.6053 343.222 52.112C343.862 50.6187 344.182 48.336 344.182 45.264C344.182 42.192 343.862 39.9093 343.222 38.416C342.582 36.9227 341.643 35.92 340.406 35.408C339.211 34.896 337.76 34.64 336.054 34.64C334.347 34.64 332.875 34.896 331.638 35.408C330.443 35.92 329.504 36.9227 328.822 38.416C328.182 39.9093 327.862 42.192 327.862 45.264C327.862 48.336 328.182 50.6187 328.822 52.112C329.504 53.6053 330.443 54.608 331.638 55.12C332.875 55.632 334.347 55.888 336.054 55.888Z" fill="white"/>
<rect width="50.6447" height="10.3391" rx="3" transform="matrix(0.874593 -0.484858 0.515296 0.857012 0 40.3291)" fill="#FCE303"/>
<rect width="33.7631" height="10.3391" rx="3" transform="matrix(0.874593 -0.484858 0.515296 0.857012 22.2233 44.5486)" fill="#FCE303"/>
<rect width="50.6447" height="10.3391" rx="3" transform="matrix(0.874593 -0.484858 0.515296 0.857012 14.9175 65.1394)" fill="#FCE303"/>
</svg>
