<svg width="196" height="40" viewBox="0 0 196 40" fill="none" xmlns="http://www.w3.org/2000/svg">
<path d="M98.504 58.128C95.56 58.128 93 58.128 90.824 58.128C88.6907 58.128 86.8987 58.1067 85.448 58.064C84.04 58.064 82.888 58.0427 81.992 58V31.504C81.992 30.2667 82.248 29.4773 82.76 29.136C83.3147 28.7947 84.0613 28.6027 85 28.56C86.024 28.56 86.984 28.56 87.88 28.56C88.776 28.5173 89.608 28.496 90.376 28.496C91.144 28.4533 91.912 28.432 92.68 28.432C93.448 28.432 94.2587 28.432 95.112 28.432C96.0933 28.432 97.096 28.4533 98.12 28.496C99.144 28.496 100.125 28.5173 101.064 28.56C102.003 28.56 102.749 28.5813 103.304 28.624C105.693 28.7947 107.421 29.4773 108.488 30.672C109.597 31.824 110.152 33.5093 110.152 35.728C110.152 37.392 109.875 38.736 109.32 39.76C108.808 40.7413 108.147 41.4453 107.336 41.872C106.525 42.2987 105.736 42.5547 104.968 42.64C105.736 42.64 106.483 42.7253 107.208 42.896C107.976 43.024 108.659 43.344 109.256 43.856C109.896 44.3253 110.408 45.0507 110.792 46.032C111.176 46.9707 111.368 48.2507 111.368 49.872C111.368 51.8347 111.005 53.392 110.28 54.544C109.555 55.6533 108.595 56.464 107.4 56.976C106.205 57.488 104.84 57.808 103.304 57.936C101.768 58.064 100.168 58.128 98.504 58.128ZM97.224 55.568C98.376 55.568 99.4853 55.5253 100.552 55.44C101.661 55.3547 102.643 55.1413 103.496 54.8C104.392 54.4587 105.096 53.8827 105.608 53.072C106.12 52.2613 106.376 51.1307 106.376 49.68C106.376 47.5893 105.907 46.16 104.968 45.392C104.072 44.5813 102.28 44.176 99.592 44.176H89.608C89.0533 44.176 88.6907 43.9627 88.52 43.536C88.3493 43.1093 88.264 42.4693 88.264 41.616H99.4C100.424 41.616 101.363 41.488 102.216 41.232C103.112 40.976 103.837 40.4427 104.392 39.632C104.947 38.7787 105.224 37.5413 105.224 35.92C105.224 34.4267 104.883 33.2747 104.2 32.464C103.517 31.6107 102.408 31.12 100.872 30.992C100.019 30.9067 99.08 30.864 98.056 30.864C97.032 30.8213 96.0293 30.8 95.048 30.8C93.768 30.8 92.552 30.8 91.4 30.8C90.2907 30.8 89.352 30.8213 88.584 30.864C88.1147 30.864 87.7093 31.0133 87.368 31.312C87.0693 31.568 86.92 32.016 86.92 32.656V55.44C87.2187 55.44 87.6027 55.4613 88.072 55.504C88.584 55.504 89.2027 55.5253 89.928 55.568C90.696 55.568 91.656 55.568 92.808 55.568C94.0027 55.568 95.4747 55.568 97.224 55.568ZM129.658 58.448C127.14 58.448 125.092 58.32 123.514 58.064C121.935 57.808 120.719 57.3813 119.866 56.784C119.055 56.144 118.479 55.312 118.138 54.288C117.839 53.264 117.69 52.0053 117.69 50.512C117.69 48.336 117.946 46.672 118.458 45.52C118.97 44.368 119.866 43.5787 121.146 43.152C122.426 42.7253 124.132 42.512 126.266 42.512C127.332 42.512 128.484 42.5547 129.722 42.64C131.002 42.6827 132.218 42.7467 133.37 42.832C134.564 42.8747 135.588 42.9387 136.442 43.024C137.338 43.1093 137.935 43.216 138.234 43.344C138.234 41.3813 138.063 39.824 137.722 38.672C137.38 37.52 136.847 36.6667 136.122 36.112C135.439 35.5573 134.564 35.1947 133.498 35.024C132.474 34.8533 131.279 34.768 129.914 34.768C128.506 34.768 127.076 34.832 125.626 34.96C124.218 35.0453 122.916 35.216 121.722 35.472C120.527 35.6853 119.61 35.984 118.97 36.368V35.408C118.97 34.512 119.226 33.8933 119.738 33.552C120.292 33.168 120.911 32.912 121.594 32.784C122.404 32.5707 123.578 32.4 125.114 32.272C126.692 32.144 128.335 32.1013 130.042 32.144C132.218 32.144 134.074 32.2507 135.61 32.464C137.188 32.6773 138.49 33.1467 139.514 33.872C140.538 34.5547 141.306 35.6 141.818 37.008C142.33 38.416 142.586 40.336 142.586 42.768V55.952C142.33 56.8053 141.199 57.4453 139.194 57.872C137.188 58.256 134.01 58.448 129.658 58.448ZM129.658 56.272C131.62 56.272 133.178 56.208 134.33 56.08C135.524 55.952 136.42 55.7813 137.018 55.568C137.658 55.3547 138.063 55.0773 138.234 54.736V45.2C137.85 45.072 137.124 44.944 136.058 44.816C135.034 44.688 133.946 44.5813 132.794 44.496C131.642 44.368 130.66 44.304 129.85 44.304C128.015 44.304 126.522 44.4107 125.37 44.624C124.26 44.8373 123.45 45.3707 122.938 46.224C122.468 47.0773 122.234 48.4 122.234 50.192C122.234 51.6 122.404 52.752 122.746 53.648C123.087 54.544 123.77 55.2053 124.794 55.632C125.86 56.0587 127.482 56.272 129.658 56.272ZM151.187 58C150.206 58 149.715 57.488 149.715 56.464V34.32C150.952 33.7653 152.574 33.2747 154.579 32.848C156.627 32.4213 158.974 32.208 161.619 32.208C164.094 32.208 166.099 32.3787 167.635 32.72C169.171 33.0613 170.344 33.5733 171.155 34.256C171.966 34.9387 172.499 35.8347 172.755 36.944C173.054 38.0107 173.203 39.312 173.203 40.848V56.08C173.203 56.5493 173.139 56.9333 173.011 57.232C172.926 57.5307 172.734 57.744 172.435 57.872C172.179 57.9573 171.774 58 171.219 58H168.723V39.952C168.723 38.2453 168.168 36.9867 167.059 36.176C165.95 35.3653 164.136 34.96 161.619 34.96C160.808 34.96 159.912 35.024 158.931 35.152C157.992 35.28 157.096 35.472 156.243 35.728C155.39 35.9413 154.686 36.24 154.131 36.624V58H151.187ZM193.392 58.384C190.064 58.384 187.376 58.0427 185.328 57.36C183.28 56.6773 181.786 55.4187 180.848 53.584C179.952 51.7067 179.504 48.976 179.504 45.392C179.504 41.7653 179.952 38.992 180.848 37.072C181.786 35.152 183.28 33.8507 185.328 33.168C187.376 32.4427 190.064 32.08 193.392 32.08C194.501 32.08 195.525 32.1227 196.464 32.208C197.445 32.2933 198.554 32.4427 199.792 32.656C200.474 32.7413 201.029 32.912 201.456 33.168C201.882 33.3813 202.181 33.7013 202.352 34.128C202.522 34.512 202.608 35.088 202.608 35.856C202.138 35.6 201.392 35.3867 200.368 35.216C199.386 35.0453 198.341 34.9173 197.232 34.832C196.122 34.704 195.141 34.64 194.288 34.64C191.728 34.64 189.701 34.9813 188.208 35.664C186.714 36.304 185.648 37.392 185.008 38.928C184.41 40.4213 184.112 42.4907 184.112 45.136C184.112 47.7813 184.41 49.8933 185.008 51.472C185.605 53.008 186.65 54.096 188.144 54.736C189.637 55.376 191.685 55.696 194.288 55.696C195.482 55.696 196.613 55.6533 197.68 55.568C198.746 55.44 199.706 55.2907 200.56 55.12C201.456 54.9067 202.138 54.672 202.608 54.416V55.824C202.608 56.464 202.202 56.976 201.392 57.36C200.624 57.7013 199.557 57.9573 198.192 58.128C196.826 58.2987 195.226 58.384 193.392 58.384ZM219.22 58.448C216.703 58.448 214.655 58.32 213.076 58.064C211.497 57.808 210.281 57.3813 209.428 56.784C208.617 56.144 208.041 55.312 207.7 54.288C207.401 53.264 207.252 52.0053 207.252 50.512C207.252 48.336 207.508 46.672 208.02 45.52C208.532 44.368 209.428 43.5787 210.708 43.152C211.988 42.7253 213.695 42.512 215.828 42.512C216.895 42.512 218.047 42.5547 219.284 42.64C220.564 42.6827 221.78 42.7467 222.932 42.832C224.127 42.8747 225.151 42.9387 226.004 43.024C226.9 43.1093 227.497 43.216 227.796 43.344C227.796 41.3813 227.625 39.824 227.284 38.672C226.943 37.52 226.409 36.6667 225.684 36.112C225.001 35.5573 224.127 35.1947 223.06 35.024C222.036 34.8533 220.841 34.768 219.476 34.768C218.068 34.768 216.639 34.832 215.188 34.96C213.78 35.0453 212.479 35.216 211.284 35.472C210.089 35.6853 209.172 35.984 208.532 36.368V35.408C208.532 34.512 208.788 33.8933 209.3 33.552C209.855 33.168 210.473 32.912 211.156 32.784C211.967 32.5707 213.14 32.4 214.676 32.272C216.255 32.144 217.897 32.1013 219.604 32.144C221.78 32.144 223.636 32.2507 225.172 32.464C226.751 32.6773 228.052 33.1467 229.076 33.872C230.1 34.5547 230.868 35.6 231.38 37.008C231.892 38.416 232.148 40.336 232.148 42.768V55.952C231.892 56.8053 230.761 57.4453 228.756 57.872C226.751 58.256 223.572 58.448 219.22 58.448ZM219.22 56.272C221.183 56.272 222.74 56.208 223.892 56.08C225.087 55.952 225.983 55.7813 226.58 55.568C227.22 55.3547 227.625 55.0773 227.796 54.736V45.2C227.412 45.072 226.687 44.944 225.62 44.816C224.596 44.688 223.508 44.5813 222.356 44.496C221.204 44.368 220.223 44.304 219.412 44.304C217.577 44.304 216.084 44.4107 214.932 44.624C213.823 44.8373 213.012 45.3707 212.5 46.224C212.031 47.0773 211.796 48.4 211.796 50.192C211.796 51.6 211.967 52.752 212.308 53.648C212.649 54.544 213.332 55.2053 214.356 55.632C215.423 56.0587 217.044 56.272 219.22 56.272ZM248.238 58.256C247.512 58.256 246.595 58.2347 245.486 58.192C244.419 58.1493 243.31 58.064 242.158 57.936C241.048 57.7653 240.046 57.5307 239.15 57.232C238.723 57.0613 238.382 56.8907 238.126 56.72C237.87 56.5493 237.678 56.2507 237.549 55.824C237.464 55.3973 237.422 54.7573 237.422 53.904C238.36 54.3733 239.47 54.7573 240.75 55.056C242.03 55.312 243.31 55.4827 244.59 55.568C245.87 55.6533 246.936 55.696 247.79 55.696C249.07 55.696 250.307 55.6533 251.502 55.568C252.739 55.44 253.848 55.2053 254.83 54.864C255.811 54.48 256.579 53.9253 257.134 53.2C257.731 52.4747 258.03 51.5147 258.03 50.32C258.03 48.5707 257.582 47.4613 256.686 46.992C255.79 46.48 254.574 46.224 253.038 46.224H246.574C244.995 46.224 243.502 46.1387 242.094 45.968C240.728 45.7547 239.598 45.2213 238.702 44.368C237.848 43.472 237.422 41.9787 237.422 39.888C237.422 37.6267 237.976 35.9413 239.086 34.832C240.195 33.7227 241.752 32.9973 243.758 32.656C245.806 32.3147 248.174 32.144 250.862 32.144C251.843 32.144 253.016 32.1653 254.382 32.208C255.747 32.2507 257.048 32.3787 258.286 32.592C259.139 32.72 259.843 32.8907 260.398 33.104C260.995 33.2747 261.422 33.5307 261.678 33.872C261.976 34.2133 262.126 34.704 262.126 35.344V36.624C261.742 36.1973 261.102 35.856 260.206 35.6C259.31 35.344 258.264 35.152 257.07 35.024C255.918 34.896 254.723 34.832 253.486 34.832C252.248 34.7893 251.096 34.768 250.03 34.768C248.664 34.768 247.342 34.8533 246.062 35.024C244.782 35.1947 243.736 35.6213 242.926 36.304C242.158 36.944 241.774 38.0533 241.774 39.632C241.774 40.8267 242.03 41.7013 242.542 42.256C243.054 42.8107 243.736 43.1733 244.59 43.344C245.486 43.472 246.488 43.536 247.598 43.536H254.19C255.811 43.536 257.24 43.6853 258.478 43.984C259.758 44.24 260.739 44.8587 261.422 45.84C262.147 46.7787 262.51 48.272 262.51 50.32C262.51 52.5813 261.891 54.288 260.654 55.44C259.416 56.592 257.71 57.36 255.534 57.744C253.4 58.0853 250.968 58.256 248.238 58.256ZM277.05 58.256C276.325 58.256 275.407 58.2347 274.298 58.192C273.231 58.1493 272.122 58.064 270.97 57.936C269.861 57.7653 268.858 57.5307 267.962 57.232C267.535 57.0613 267.194 56.8907 266.938 56.72C266.682 56.5493 266.49 56.2507 266.362 55.824C266.277 55.3973 266.234 54.7573 266.234 53.904C267.173 54.3733 268.282 54.7573 269.562 55.056C270.842 55.312 272.122 55.4827 273.402 55.568C274.682 55.6533 275.749 55.696 276.602 55.696C277.882 55.696 279.119 55.6533 280.314 55.568C281.551 55.44 282.661 55.2053 283.642 54.864C284.623 54.48 285.391 53.9253 285.946 53.2C286.543 52.4747 286.842 51.5147 286.842 50.32C286.842 48.5707 286.394 47.4613 285.498 46.992C284.602 46.48 283.386 46.224 281.85 46.224H275.386C273.807 46.224 272.314 46.1387 270.906 45.968C269.541 45.7547 268.41 45.2213 267.514 44.368C266.661 43.472 266.234 41.9787 266.234 39.888C266.234 37.6267 266.789 35.9413 267.898 34.832C269.007 33.7227 270.565 32.9973 272.57 32.656C274.618 32.3147 276.986 32.144 279.674 32.144C280.655 32.144 281.829 32.1653 283.194 32.208C284.559 32.2507 285.861 32.3787 287.098 32.592C287.951 32.72 288.655 32.8907 289.21 33.104C289.807 33.2747 290.234 33.5307 290.49 33.872C290.789 34.2133 290.938 34.704 290.938 35.344V36.624C290.554 36.1973 289.914 35.856 289.018 35.6C288.122 35.344 287.077 35.152 285.882 35.024C284.73 34.896 283.535 34.832 282.298 34.832C281.061 34.7893 279.909 34.768 278.842 34.768C277.477 34.768 276.154 34.8533 274.874 35.024C273.594 35.1947 272.549 35.6213 271.738 36.304C270.97 36.944 270.586 38.0533 270.586 39.632C270.586 40.8267 270.842 41.7013 271.354 42.256C271.866 42.8107 272.549 43.1733 273.402 43.344C274.298 43.472 275.301 43.536 276.41 43.536H283.002C284.623 43.536 286.053 43.6853 287.29 43.984C288.57 44.24 289.551 44.8587 290.234 45.84C290.959 46.7787 291.322 48.272 291.322 50.32C291.322 52.5813 290.703 54.288 289.466 55.44C288.229 56.592 286.522 57.36 284.346 57.744C282.213 58.0853 279.781 58.256 277.05 58.256ZM300.807 32.464V49.808C300.807 51.9413 301.404 53.456 302.599 54.352C303.836 55.2053 305.713 55.632 308.231 55.632C310.919 55.632 312.839 55.184 313.991 54.288C315.185 53.3493 315.783 51.856 315.783 49.808V32.464C315.825 32.464 315.953 32.464 316.167 32.464C316.423 32.464 316.679 32.464 316.935 32.464C317.233 32.464 317.511 32.464 317.767 32.464C318.023 32.464 318.193 32.464 318.279 32.464C318.791 32.464 319.196 32.5067 319.495 32.592C319.793 32.6347 319.985 32.784 320.071 33.04C320.199 33.296 320.263 33.7227 320.263 34.32V48.976C320.263 51.1093 319.943 52.88 319.303 54.288C318.663 55.6533 317.468 56.6773 315.719 57.36C313.969 58 311.452 58.32 308.167 58.32C305.18 58.32 302.812 58.0427 301.062 57.488C299.356 56.9333 298.14 55.9947 297.415 54.672C296.689 53.3493 296.327 51.5573 296.327 49.296V34.32C296.327 33.5947 296.433 33.104 296.647 32.848C296.903 32.592 297.372 32.464 298.055 32.464C298.524 32.464 298.972 32.464 299.399 32.464C299.868 32.464 300.337 32.464 300.807 32.464ZM331.82 58H329.004C328.449 58 328.023 57.872 327.724 57.616C327.468 57.3173 327.34 56.784 327.34 56.016V33.744C328.279 33.4453 329.559 33.1253 331.18 32.784C332.844 32.4427 334.892 32.272 337.324 32.272C339.628 32.272 341.441 32.4427 342.764 32.784C344.129 33.0827 345.111 33.5093 345.708 34.064C346.348 34.6187 346.753 35.3013 346.924 36.112C347.137 36.88 347.244 37.7547 347.244 38.736H342.956L342.892 37.84C342.849 36.8587 342.529 36.1547 341.932 35.728C341.335 35.2587 340.631 34.9813 339.82 34.896C339.009 34.768 338.199 34.704 337.388 34.704C336.151 34.704 335.041 34.8107 334.06 35.024C333.121 35.2373 332.375 35.5147 331.82 35.856V58ZM364.436 58.384C361.961 58.384 359.871 58.2133 358.164 57.872C356.5 57.5307 355.156 56.8907 354.132 55.952C353.151 55.0133 352.425 53.712 351.956 52.048C351.529 50.3413 351.316 48.144 351.316 45.456C351.316 42.384 351.7 39.8667 352.468 37.904C353.236 35.9413 354.601 34.4907 356.564 33.552C358.527 32.6133 361.279 32.144 364.82 32.144C367.551 32.144 369.727 32.5067 371.348 33.232C373.012 33.9573 374.207 35.0667 374.932 36.56C375.7 38.0533 376.084 39.9947 376.084 42.384V46.032H358.036C358.036 45.52 358.164 45.0933 358.42 44.752C358.676 44.368 359.145 44.176 359.828 44.176H372.052L371.988 42.32C371.945 39.6747 371.369 37.7547 370.26 36.56C369.193 35.3653 367.316 34.768 364.628 34.768C362.367 34.768 360.596 35.1093 359.316 35.792C358.036 36.4747 357.14 37.584 356.628 39.12C356.116 40.656 355.86 42.7467 355.86 45.392C355.86 48.208 356.137 50.3627 356.692 51.856C357.289 53.3067 358.271 54.3093 359.636 54.864C361.001 55.376 362.857 55.632 365.204 55.632C366.015 55.632 366.932 55.6107 367.956 55.568C369.023 55.4827 370.089 55.3973 371.156 55.312C372.223 55.2267 373.161 55.12 373.972 54.992C374.825 54.8213 375.423 54.6507 375.764 54.48V55.248C375.764 55.6747 375.636 56.08 375.38 56.464C375.167 56.848 374.697 57.168 373.972 57.424C373.033 57.808 371.753 58.064 370.132 58.192C368.553 58.32 366.655 58.384 364.436 58.384Z" fill="black"/>
<rect y="34" width="51.1457" height="10.6554" rx="3" transform="rotate(-30 0 34)" fill="#FCE303"/>
<rect x="22.2233" y="38.3943" width="34.0972" height="10.6554" rx="3" transform="rotate(-30 22.2233 38.3943)" fill="#FCE303"/>
<rect x="14.9175" y="59.8382" width="51.1457" height="10.6554" rx="3" transform="rotate(-30 14.9175 59.8382)" fill="#FCE303"/>
</svg>
